<svg width="128" height="128" viewBox="0 0 128 128" fill="none" xmlns="http://www.w3.org/2000/svg">
<path d="M107.737 108.024C107.739 109.794 106.624 111.546 104.458 113.18C102.291 114.815 99.1155 116.301 95.1114 117.552C91.1074 118.803 86.3536 119.796 81.1216 120.473C75.8896 121.15 70.2818 121.498 64.6186 121.498C58.9554 121.498 53.3477 121.15 48.1157 120.473C42.8837 119.796 38.1299 118.803 34.1259 117.552C30.1218 116.301 26.9459 114.815 24.7795 113.18C22.6132 111.546 21.4988 109.794 21.5 108.024C21.4988 106.255 22.6132 104.503 24.7795 102.868C26.9459 101.233 30.1218 99.748 34.1259 98.4967C38.1299 97.2454 42.8837 96.2529 48.1157 95.5757C53.3477 94.8985 58.9554 94.55 64.6186 94.55C70.2818 94.55 75.8896 94.8985 81.1216 95.5757C86.3536 96.2529 91.1074 97.2454 95.1114 98.4967C99.1155 99.748 102.291 101.233 104.458 102.868C106.624 104.503 107.739 106.255 107.737 108.024Z" fill="url(#paint0_radial)"/>
<path d="M117.5 64C117.5 93.5472 93.5472 117.5 64 117.5C34.4528 117.5 10.5 93.5472 10.5 64C10.5 34.4528 34.4528 10.5 64 10.5C93.5472 10.5 117.5 34.4528 117.5 64Z" fill="url(#paint1_linear)"/>
<path d="M117.5 64C117.5 93.5472 93.5472 117.5 64 117.5C34.4528 117.5 10.5 93.5472 10.5 64C10.5 34.4528 34.4528 10.5 64 10.5C93.5472 10.5 117.5 34.4528 117.5 64Z" fill="url(#paint2_radial)" fill-opacity="0.2"/>
<path d="M117.5 64C117.5 93.5472 93.5472 117.5 64 117.5C34.4528 117.5 10.5 93.5472 10.5 64C10.5 34.4528 34.4528 10.5 64 10.5C93.5472 10.5 117.5 34.4528 117.5 64Z" stroke="#ABACAE"/>
<path d="M115.5 64C115.5 92.4427 92.4427 115.5 64 115.5C35.5573 115.5 12.5 92.4427 12.5 64C12.5 35.5573 35.5573 12.5 64 12.5C92.4427 12.5 115.5 35.5573 115.5 64Z" stroke="url(#paint3_linear)" stroke-width="5"/>
<path d="M117.5 64C117.5 93.5472 93.5472 117.5 64 117.5C34.4528 117.5 10.5 93.5472 10.5 64C10.5 34.4528 34.4528 10.5 64 10.5C93.5472 10.5 117.5 34.4528 117.5 64Z" stroke="url(#paint4_linear)"/>
<path d="M118.5 64C118.5 94.0995 94.0995 118.5 64 118.5C33.9005 118.5 9.5 94.0995 9.5 64C9.5 33.9005 33.9005 9.5 64 9.5C94.0995 9.5 118.5 33.9005 118.5 64Z" stroke="url(#paint5_linear)"/>
<path d="M63.9054 65.4012C63.9066 65.933 63.7124 66.2952 63.4485 66.5296C63.1752 66.7723 62.7959 66.9046 62.4 66.9046C62.0041 66.9046 61.6249 66.7723 61.3516 66.5296C61.0876 66.2952 60.8934 65.933 60.8946 65.4011L60.8946 65.3988C60.8933 64.867 61.0876 64.5048 61.3515 64.2704C61.6248 64.0277 62.004 63.8954 62.4 63.8954C62.7959 63.8954 63.1751 64.0277 63.4484 64.2704C63.7124 64.5048 63.9066 64.867 63.9054 65.3989L63.9054 65.4012Z" stroke="black" stroke-opacity="0.15"/>
<path d="M63.4054 65.4023C63.4063 65.7979 63.2681 66.021 63.1165 66.1557C62.9461 66.307 62.6897 66.4046 62.4 66.4046C62.1103 66.4046 61.854 66.307 61.6836 66.1557C61.5319 66.021 61.3937 65.7979 61.3946 65.4023L61.3946 65.3977C61.3936 65.0021 61.5319 64.779 61.6835 64.6443C61.8539 64.493 62.1103 64.3954 62.4 64.3954C62.6896 64.3954 62.946 64.493 63.1164 64.6443C63.2681 64.779 63.4063 65.0021 63.4054 65.3977L63.4054 65.4023Z" stroke="black" stroke-opacity="0.07" stroke-width="2"/>
<path d="M59.1587 68.9466L93.8012 30" stroke="black" stroke-opacity="0.15" stroke-width="2.5" stroke-linecap="round"/>
<path d="M59.1587 69.9466L93.8012 31" stroke="black" stroke-opacity="0.07" stroke-width="2.5" stroke-linecap="round"/>
<path d="M59 67.9466L93.6425 29" stroke="url(#paint6_linear)" stroke-width="3" stroke-linecap="round"/>
<path d="M59 67.9466L93.6425 29" stroke="url(#paint7_linear)" stroke-width="2" stroke-linecap="round"/>
<path d="M65.8431 65.8718L35 60.1319" stroke="black" stroke-opacity="0.15" stroke-width="3.5" stroke-linecap="round"/>
<path d="M65.8431 66.8718L35 61.1319" stroke="black" stroke-opacity="0.07" stroke-width="3.5" stroke-linecap="round"/>
<path d="M65.8431 64.7399L35 59" stroke="url(#paint8_linear)" stroke-width="3.5" stroke-linecap="round"/>
<path d="M65.8431 64.8718L35 59.1319" stroke="url(#paint9_linear)" stroke-width="2.5" stroke-linecap="round"/>
<path d="M59.1587 57.5511L77.6882 100.8" stroke="black" stroke-opacity="0.15" stroke-width="1.5" stroke-linecap="round"/>
<path d="M59.1587 58.5511L77.6882 101.8" stroke="black" stroke-opacity="0.07" stroke-width="1.5" stroke-linecap="round"/>
<path d="M59.1587 56.5511L77.6882 99.8" stroke="url(#paint10_linear)" stroke-width="1.5" stroke-linecap="round"/>
<path d="M59.1587 56.5511L77.6882 99.8" stroke="url(#paint11_linear)" stroke-linecap="round"/>
<path d="M63.9054 64.4012C63.9066 64.933 63.7124 65.2952 63.4485 65.5296C63.1752 65.7723 62.7959 65.9046 62.4 65.9046C62.0041 65.9046 61.6249 65.7723 61.3516 65.5296C61.0876 65.2952 60.8934 64.933 60.8946 64.4011L60.8946 64.3988C60.8933 63.867 61.0876 63.5048 61.3515 63.2704C61.6248 63.0277 62.004 62.8954 62.4 62.8954C62.7959 62.8954 63.1751 63.0277 63.4484 63.2704C63.7124 63.5048 63.9066 63.867 63.9054 64.3989L63.9054 64.4012Z" fill="white" stroke="#1A1A1A"/>
<path d="M62.5 25C62.5 25.5523 62.9477 26 63.5 26C64.0523 26 64.5 25.5523 64.5 25H62.5ZM62.5 16V25H64.5V16H62.5Z" fill="black" fill-opacity="0.15"/>
<path d="M62.5 25C62.5 25.5523 62.9477 26 63.5 26C64.0523 26 64.5 25.5523 64.5 25H62.5ZM62.5 16V25H64.5V16H62.5Z" fill="black" fill-opacity="0.07"/>
<path d="M62.5 24C62.5 24.5523 62.9477 25 63.5 25C64.0523 25 64.5 24.5523 64.5 24H62.5ZM62.5 15V24H64.5V15H62.5Z" fill="#ED5353"/>
<path d="M65 104C65 103.448 64.5523 103 64 103C63.4477 103 63 103.448 63 104H65ZM65 113V104H63V113H65Z" fill="#A10705"/>
<path d="M66 105C66 104.448 65.5523 104 65 104C64.4477 104 64 104.448 64 105H66ZM66 113V105H64V113H66Z" fill="black" fill-opacity="0.15"/>
<path d="M66 105C66 104.448 65.5523 104 65 104C64.4477 104 64 104.448 64 105H66ZM66 113V105H64V113H66Z" fill="black" fill-opacity="0.07"/>
<path d="M104 64C103.448 64 103 64.4477 103 65C103 65.5523 103.448 66 104 66V64ZM113 64H104V66H113V64Z" fill="black" fill-opacity="0.15"/>
<path d="M104 64C103.448 64 103 64.4477 103 65C103 65.5523 103.448 66 104 66V64ZM113 64H104V66H113V64Z" fill="black" fill-opacity="0.07"/>
<path d="M104 63C103.448 63 103 63.4477 103 64C103 64.5523 103.448 65 104 65V63ZM113 63H104V65H113V63Z" fill="#C6262E"/>
<path d="M24 65C24.5523 65 25 64.5523 25 64C25 63.4477 24.5523 63 24 63V65ZM15 65H24V63H15V65Z" fill="#C6262E"/>
<path d="M24 66C24.5523 66 25 65.5523 25 65C25 64.4477 24.5523 64 24 64V66ZM15 66H24V64H15V66Z" fill="black" fill-opacity="0.15"/>
<path d="M24 66C24.5523 66 25 65.5523 25 65C25 64.4477 24.5523 64 24 64V66ZM15 66H24V64H15V66Z" fill="black" fill-opacity="0.07"/>
<defs>
<radialGradient id="paint0_radial" cx="0" cy="0" r="1" gradientUnits="userSpaceOnUse" gradientTransform="translate(64.6186 108.024) scale(43.1186 13.4713)">
<stop stop-color="#3D3D3D"/>
<stop offset="0.5" stop-color="#686868" stop-opacity="0.498039"/>
<stop offset="1" stop-color="#686868" stop-opacity="0"/>
</radialGradient>
<linearGradient id="paint1_linear" x1="64.5" y1="117.5" x2="64.5" y2="10.5" gradientUnits="userSpaceOnUse">
<stop stop-color="#B4B4B4"/>
<stop offset="0.359375" stop-color="#E4E4E4"/>
<stop offset="0.713542" stop-color="#F4F4F4"/>
<stop offset="1" stop-color="white"/>
</linearGradient>
<radialGradient id="paint2_radial" cx="0" cy="0" r="1" gradientUnits="userSpaceOnUse" gradientTransform="translate(64 64) rotate(90) scale(54)">
<stop stop-color="#1A1A1A" stop-opacity="0.5"/>
<stop offset="0.757383" stop-opacity="0"/>
</radialGradient>
<linearGradient id="paint3_linear" x1="64" y1="10" x2="64" y2="118" gradientUnits="userSpaceOnUse">
<stop stop-color="#4D4D4D"/>
<stop offset="0.515625" stop-color="#333333"/>
<stop offset="1" stop-color="#1A1A1A"/>
</linearGradient>
<linearGradient id="paint4_linear" x1="64" y1="10" x2="64" y2="118" gradientUnits="userSpaceOnUse">
<stop stop-color="#C5C5C5"/>
<stop offset="0.515625" stop-color="#7A7A7A"/>
<stop offset="1" stop-color="#565656"/>
</linearGradient>
<linearGradient id="paint5_linear" x1="64" y1="9" x2="64" y2="119" gradientUnits="userSpaceOnUse">
<stop stop-color="#373737"/>
<stop offset="0.526042" stop-color="#1A1A1A"/>
<stop offset="1"/>
</linearGradient>
<linearGradient id="paint6_linear" x1="58" y1="69" x2="94" y2="28.5" gradientUnits="userSpaceOnUse">
<stop stop-color="#333333"/>
<stop offset="0.401042" stop-color="#3E3E3E" stop-opacity="0.85"/>
<stop offset="0.75" stop-color="#686868" stop-opacity="0.8"/>
<stop offset="1" stop-color="#A3A3A3"/>
</linearGradient>
<linearGradient id="paint7_linear" x1="93.8413" y1="28.5" x2="59.3413" y2="68" gradientUnits="userSpaceOnUse">
<stop stop-color="#4D4D4D"/>
<stop offset="0.459912" stop-color="#333333"/>
<stop offset="1" stop-color="#1A1A1A"/>
</linearGradient>
<linearGradient id="paint8_linear" x1="66" y1="66.5" x2="34.5" y2="57.5" gradientUnits="userSpaceOnUse">
<stop stop-color="#333333"/>
<stop offset="0.34375" stop-color="#4E4E4E" stop-opacity="0.878462"/>
<stop offset="0.677083" stop-color="#606060" stop-opacity="0.8"/>
<stop offset="1" stop-color="#707070" stop-opacity="0.7"/>
</linearGradient>
<linearGradient id="paint9_linear" x1="44" y1="55" x2="51.5" y2="66.5" gradientUnits="userSpaceOnUse">
<stop stop-color="#4D4D4D"/>
<stop offset="1" stop-color="#1A1A1A"/>
</linearGradient>
<linearGradient id="paint10_linear" x1="59" y1="56" x2="78" y2="100.5" gradientUnits="userSpaceOnUse">
<stop stop-color="#FF8282"/>
<stop offset="0.489583" stop-color="#FF2121" stop-opacity="0.9"/>
<stop offset="1" stop-color="#FF1C1C"/>
</linearGradient>
<linearGradient id="paint11_linear" x1="59.5" y1="56" x2="78.5" y2="100.5" gradientUnits="userSpaceOnUse">
<stop stop-color="#ED5353"/>
<stop offset="0.489583" stop-color="#C6262E"/>
<stop offset="1" stop-color="#A10705"/>
</linearGradient>
</defs>
</svg>
