<svg width="16" height="16" viewBox="0 0 16 16" fill="none" xmlns="http://www.w3.org/2000/svg">
<path d="M13.4671 13.253C13.4674 13.4742 13.328 13.6932 13.0573 13.8975C12.7864 14.1019 12.3894 14.2876 11.8889 14.444C11.3884 14.6004 10.7942 14.7245 10.1402 14.8091C9.4862 14.8937 8.78522 14.9372 8.07732 14.9372C7.36942 14.9372 6.66846 14.8937 6.01446 14.8091C5.36046 14.7245 4.76624 14.6004 4.26574 14.444C3.76523 14.2876 3.36824 14.1019 3.09744 13.8975C2.82665 13.6932 2.68735 13.4742 2.6875 13.253C2.68735 13.0319 2.82665 12.8129 3.09744 12.6085C3.36824 12.4041 3.76523 12.2185 4.26574 12.0621C4.76624 11.9057 5.36046 11.7816 6.01446 11.697C6.66846 11.6123 7.36942 11.5687 8.07732 11.5687C8.78522 11.5687 9.4862 11.6123 10.1402 11.697C10.7942 11.7816 11.3884 11.9057 11.8889 12.0621C12.3894 12.2185 12.7864 12.4041 13.0573 12.6085C13.328 12.8129 13.4674 13.0319 13.4671 13.253Z" fill="url(#paint0_radial)"/>
<path d="M8 14.5C11.7279 14.5 14.75 11.4779 14.75 7.75C14.75 4.02208 11.7279 1 8 1C4.27208 1 1.25 4.02208 1.25 7.75C1.25 11.4779 4.27208 14.5 8 14.5Z" fill="url(#paint1_linear)" stroke="#ABACAE" stroke-width="0.7"/>
<path d="M7.55068 7.925C7.55068 7.925 7.55068 7.925 7.55068 7.925C7.55068 7.92462 7.55068 7.92424 7.55068 7.92386C7.55127 7.87118 7.57624 7.79618 7.64055 7.73907C7.69643 7.68944 7.75655 7.67557 7.8 7.67557C7.84345 7.67557 7.90357 7.68944 7.95944 7.73906C8.02375 7.79617 8.04871 7.87116 8.04931 7.92384C8.04931 7.92409 8.04932 7.92435 8.04932 7.9246M7.55068 7.925L8.04931 7.925C8.04931 7.92486 8.04932 7.92473 8.04932 7.9246M7.55068 7.925C7.55068 7.92514 7.55067 7.92527 7.55067 7.9254C7.55067 7.92565 7.55068 7.92591 7.55068 7.92616C7.55128 7.97884 7.57624 8.05383 7.64055 8.11094C7.69642 8.16056 7.75654 8.17443 7.79999 8.17443C7.84344 8.17443 7.90356 8.16056 7.95944 8.11093C8.02375 8.05382 8.04872 7.97882 8.04931 7.92614C8.04931 7.92576 8.04931 7.92538 8.04931 7.925M7.55068 7.925C7.55067 7.92539 7.55067 7.92578 7.55067 7.92616L8.04931 7.925M8.04932 7.9246L8.04932 7.925L8.04932 7.925L8.04932 7.92614C8.04932 7.92576 8.04932 7.92538 8.04931 7.925M8.04932 7.9246L8.04931 7.925" stroke="black" stroke-opacity="0.15"/>
<path d="M8.05067 7.92384C8.05067 7.92422 8.05067 7.92461 8.05067 7.925C8.05067 7.92538 8.05067 7.92576 8.05067 7.92614C8.0503 8.2587 7.54972 8.25871 7.54932 7.92616C7.54932 7.92578 7.54932 7.92539 7.54932 7.925C7.54932 7.92462 7.54932 7.92424 7.54932 7.92385C7.54969 7.5913 8.05027 7.59129 8.05067 7.92384Z" stroke="black" stroke-opacity="0.07" stroke-width="2"/>
<path d="M7 8.86833L11.3303 4" stroke="url(#paint2_linear)" stroke-width="0.5" stroke-linecap="round"/>
<path d="M8.48039 7.85897L4.625 7.14148" stroke="url(#paint3_linear)" stroke-width="0.7" stroke-linecap="round"/>
<path d="M7.64484 6.81889L9.96103 12.225" stroke="#A10705" stroke-width="0.3" stroke-linecap="round"/>
<path d="M8.25 7.87558C8.25013 7.93247 8.23131 7.95672 8.21709 7.96936C8.1982 7.98615 8.16576 8 8.12501 8C8.08425 8 8.05181 7.98614 8.03291 7.96935C8.01869 7.95672 7.99987 7.93246 8 7.87557L8 7.87442C7.99987 7.81753 8.01869 7.79328 8.03291 7.78064C8.0518 7.76386 8.08424 7.75 8.12499 7.75C8.16575 7.75 8.19819 7.76386 8.21709 7.78065C8.23131 7.79328 8.25013 7.81754 8.25 7.87443L8.25 7.87558Z" fill="white" stroke="black" stroke-width="0.5"/>
<path d="M8 14.375C11.6589 14.375 14.625 11.4089 14.625 7.75C14.625 4.09111 11.6589 1.125 8 1.125C4.34111 1.125 1.375 4.09111 1.375 7.75C1.375 11.4089 4.34111 14.375 8 14.375Z" stroke="url(#paint4_linear)" stroke-width="0.5"/>
<defs>
<radialGradient id="paint0_radial" cx="0" cy="0" r="1" gradientUnits="userSpaceOnUse" gradientTransform="translate(8.07732 13.253) scale(5.38982 1.68391)">
<stop stop-color="#3D3D3D"/>
<stop offset="0.5" stop-color="#686868" stop-opacity="0.498039"/>
<stop offset="1" stop-color="#686868" stop-opacity="0"/>
</radialGradient>
<linearGradient id="paint1_linear" x1="8.0625" y1="14.4375" x2="8.0625" y2="1.0625" gradientUnits="userSpaceOnUse">
<stop stop-color="#E9E9E9"/>
<stop offset="1" stop-color="#FAFAFA"/>
</linearGradient>
<linearGradient id="paint2_linear" x1="11.3552" y1="3.9375" x2="7.04266" y2="8.875" gradientUnits="userSpaceOnUse">
<stop stop-color="#4D4D4D"/>
<stop offset="0.459912" stop-color="#333333"/>
<stop offset="1" stop-color="#1A1A1A"/>
</linearGradient>
<linearGradient id="paint3_linear" x1="5.75" y1="6.62499" x2="6.6875" y2="8.06249" gradientUnits="userSpaceOnUse">
<stop stop-color="#4D4D4D"/>
<stop offset="1" stop-color="#1A1A1A"/>
</linearGradient>
<linearGradient id="paint4_linear" x1="8.0625" y1="14.4375" x2="8.0625" y2="1.0625" gradientUnits="userSpaceOnUse">
<stop stop-color="#D2D2D2"/>
<stop offset="1" stop-color="white"/>
</linearGradient>
</defs>
</svg>
