<svg width="16" height="16" viewBox="0 0 16 16" fill="none" xmlns="http://www.w3.org/2000/svg">
<path d="M13.4671 13.503C13.4674 13.7243 13.328 13.9433 13.0573 14.1475C12.7864 14.3519 12.3894 14.5376 11.8889 14.694C11.3884 14.8504 10.7942 14.9745 10.1402 15.0591C9.4862 15.1438 8.78522 15.1873 8.07732 15.1873C7.36942 15.1873 6.66846 15.1438 6.01446 15.0591C5.36046 14.9745 4.76624 14.8504 4.26574 14.694C3.76523 14.5376 3.36824 14.3519 3.09744 14.1475C2.82665 13.9433 2.68735 13.7243 2.6875 13.503C2.68735 13.2819 2.82665 13.0629 3.09744 12.8585C3.36824 12.6541 3.76523 12.4685 4.26574 12.3121C4.76624 12.1557 5.36046 12.0316 6.01446 11.947C6.66846 11.8623 7.36942 11.8188 8.07732 11.8188C8.78522 11.8188 9.4862 11.8623 10.1402 11.947C10.7942 12.0316 11.3884 12.1557 11.8889 12.3121C12.3894 12.4685 12.7864 12.6541 13.0573 12.8585C13.328 13.0629 13.4674 13.2819 13.4671 13.503Z" fill="url(#paint0_radial)"/>
<path d="M14.25 8C14.25 11.4518 11.4518 14.25 8 14.25C4.54822 14.25 1.75 11.4518 1.75 8C1.75 4.54822 4.54822 1.75 8 1.75C11.4518 1.75 14.25 4.54822 14.25 8Z" fill="url(#paint1_linear)"/>
<path d="M14.25 8C14.25 11.4518 11.4518 14.25 8 14.25C4.54822 14.25 1.75 11.4518 1.75 8C1.75 4.54822 4.54822 1.75 8 1.75C11.4518 1.75 14.25 4.54822 14.25 8Z" fill="url(#paint2_radial)" fill-opacity="0.2"/>
<path d="M14.25 8C14.25 11.4518 11.4518 14.25 8 14.25C4.54822 14.25 1.75 11.4518 1.75 8C1.75 4.54822 4.54822 1.75 8 1.75C11.4518 1.75 14.25 4.54822 14.25 8Z" stroke="#ABACAE"/>
<path d="M14 8C14 11.3137 11.3137 14 8 14C4.68629 14 2 11.3137 2 8C2 4.68629 4.68629 2 8 2C11.3137 2 14 4.68629 14 8Z" stroke="url(#paint3_linear)" stroke-width="1.5"/>
<path d="M14.3 8C14.3 11.4794 11.4794 14.3 8 14.3C4.52061 14.3 1.7 11.4794 1.7 8C1.7 4.52061 4.52061 1.7 8 1.7C11.4794 1.7 14.3 4.52061 14.3 8Z" stroke="url(#paint4_linear)" stroke-width="0.9"/>
<path d="M14.525 8C14.525 11.6037 11.6037 14.525 8 14.525C4.39634 14.525 1.475 11.6037 1.475 8C1.475 4.39634 4.39634 1.475 8 1.475C11.6037 1.475 14.525 4.39634 14.525 8Z" stroke="url(#paint5_linear)" stroke-width="0.7"/>
<path d="M7.55068 8.17501C7.55068 8.17501 7.55068 8.17501 7.55068 8.175C7.55068 8.17463 7.55068 8.17425 7.55068 8.17387C7.55127 8.12119 7.57624 8.04619 7.64055 7.98908C7.69643 7.93945 7.75655 7.92558 7.8 7.92558C7.84345 7.92558 7.90357 7.93945 7.95944 7.98907C8.02375 8.04618 8.04871 8.12117 8.04931 8.17385C8.04931 8.1741 8.04932 8.17435 8.04932 8.17461M7.55068 8.17501L8.04931 8.175C8.04931 8.17487 8.04932 8.17474 8.04932 8.17461M7.55068 8.17501C7.55068 8.17514 7.55067 8.17528 7.55067 8.17541C7.55067 8.17566 7.55068 8.17591 7.55068 8.17617C7.55128 8.22884 7.57624 8.30384 7.64055 8.36094C7.69642 8.41057 7.75654 8.42444 7.79999 8.42444C7.84344 8.42444 7.90356 8.41057 7.95944 8.36094C8.02375 8.30383 8.04872 8.22883 8.04931 8.17615C8.04931 8.17577 8.04931 8.17539 8.04931 8.17501M7.55068 8.17501C7.55067 8.1754 7.55067 8.17578 7.55067 8.17617L8.04931 8.17501M8.04932 8.17461L8.04932 8.175L8.04932 8.17501L8.04932 8.17615C8.04932 8.17577 8.04932 8.17539 8.04931 8.17501M8.04932 8.17461L8.04931 8.17501" stroke="black" stroke-opacity="0.15"/>
<path d="M8.05067 8.17384C8.05067 8.17423 8.05067 8.17462 8.05067 8.17501C8.05067 8.17539 8.05067 8.17577 8.05067 8.17615C8.0503 8.50871 7.54972 8.50872 7.54932 8.17617C7.54932 8.17578 7.54932 8.1754 7.54932 8.17501C7.54932 8.17463 7.54932 8.17424 7.54932 8.17386C7.54969 7.8413 8.05027 7.8413 8.05067 8.17384Z" stroke="black" stroke-opacity="0.07" stroke-width="2"/>
<path d="M7 9L11 4.5" stroke="url(#paint6_linear)" stroke-linecap="round"/>
<path d="M7 9L11 4.5" stroke="url(#paint7_linear)" stroke-width="0.5" stroke-linecap="round"/>
<path d="M8.49604 8.17581L4.87646 6.66666" stroke="url(#paint8_linear)" stroke-width="1.5" stroke-linecap="round"/>
<path d="M8.49262 8.19195L4.87305 6.6828" stroke="url(#paint9_linear)" stroke-linecap="round"/>
<path d="M7.5 6.75L9.81619 12.1561" stroke="url(#paint10_linear)" stroke-width="0.7" stroke-linecap="round"/>
<path d="M7.5 6.75L9.81619 12.1561" stroke="url(#paint11_linear)" stroke-width="0.3" stroke-linecap="round"/>
<path d="M8.25136 8.00057C8.25213 8.33466 7.74924 8.33466 7.75 8.00057C7.74923 7.66648 8.25212 7.66648 8.25136 8.00057Z" fill="white"/>
<defs>
<radialGradient id="paint0_radial" cx="0" cy="0" r="1" gradientUnits="userSpaceOnUse" gradientTransform="translate(8.07732 13.503) scale(5.38982 1.68391)">
<stop stop-color="#3D3D3D"/>
<stop offset="0.5" stop-color="#686868" stop-opacity="0.498039"/>
<stop offset="1" stop-color="#686868" stop-opacity="0"/>
</radialGradient>
<linearGradient id="paint1_linear" x1="8.0625" y1="14.6875" x2="8.0625" y2="1.3125" gradientUnits="userSpaceOnUse">
<stop stop-color="#BFBFBF"/>
<stop offset="0.489583" stop-color="#ECECEC"/>
<stop offset="0.765625" stop-color="#F4F4F4"/>
<stop offset="1" stop-color="#FAFAFA"/>
</linearGradient>
<radialGradient id="paint2_radial" cx="0" cy="0" r="1" gradientUnits="userSpaceOnUse" gradientTransform="translate(8 8) rotate(90) scale(3.25)">
<stop stop-color="#1A1A1A" stop-opacity="0.7"/>
<stop offset="1" stop-opacity="0"/>
</radialGradient>
<linearGradient id="paint3_linear" x1="8" y1="1.25" x2="8" y2="14.75" gradientUnits="userSpaceOnUse">
<stop stop-color="#4D4D4D"/>
<stop offset="0.515625" stop-color="#333333"/>
<stop offset="1" stop-color="#1A1A1A"/>
</linearGradient>
<linearGradient id="paint4_linear" x1="8" y1="1.25" x2="8" y2="14.75" gradientUnits="userSpaceOnUse">
<stop stop-color="#C5C5C5"/>
<stop offset="0.515625" stop-color="#7A7A7A"/>
<stop offset="1" stop-color="#565656"/>
</linearGradient>
<linearGradient id="paint5_linear" x1="8" y1="1.125" x2="8" y2="14.875" gradientUnits="userSpaceOnUse">
<stop stop-color="#373737"/>
<stop offset="0.526042" stop-color="#1A1A1A"/>
<stop offset="1"/>
</linearGradient>
<linearGradient id="paint6_linear" x1="6.88453" y1="9.12171" x2="11.0444" y2="4.445" gradientUnits="userSpaceOnUse">
<stop stop-color="#333333"/>
<stop offset="0.401042" stop-color="#3E3E3E" stop-opacity="0.85"/>
<stop offset="0.75" stop-color="#686868" stop-opacity="0.8"/>
<stop offset="1" stop-color="#A3A3A3"/>
</linearGradient>
<linearGradient id="paint7_linear" x1="11.023" y1="4.44223" x2="7.03637" y2="9.00352" gradientUnits="userSpaceOnUse">
<stop stop-color="#4D4D4D"/>
<stop offset="0.459912" stop-color="#333333"/>
<stop offset="1" stop-color="#1A1A1A"/>
</linearGradient>
<linearGradient id="paint8_linear" x1="8.46912" y1="8.39505" x2="4.85463" y2="6.47022" gradientUnits="userSpaceOnUse">
<stop stop-color="#333333"/>
<stop offset="0.34375" stop-color="#4E4E4E" stop-opacity="0.878462"/>
<stop offset="0.677083" stop-color="#606060" stop-opacity="0.8"/>
<stop offset="1" stop-color="#707070" stop-opacity="0.7"/>
</linearGradient>
<linearGradient id="paint9_linear" x1="6.08128" y1="6.41342" x2="6.69687" y2="8.01541" gradientUnits="userSpaceOnUse">
<stop stop-color="#4D4D4D"/>
<stop offset="1" stop-color="#1A1A1A"/>
</linearGradient>
<linearGradient id="paint10_linear" x1="7.48016" y1="6.68111" x2="9.85516" y2="12.2436" gradientUnits="userSpaceOnUse">
<stop stop-color="#FF8282"/>
<stop offset="0.489583" stop-color="#FF2121" stop-opacity="0.9"/>
<stop offset="1" stop-color="#FF1C1C"/>
</linearGradient>
<linearGradient id="paint11_linear" x1="7.54266" y1="6.6811" x2="9.91766" y2="12.2436" gradientUnits="userSpaceOnUse">
<stop stop-color="#ED5353"/>
<stop offset="0.489583" stop-color="#C6262E"/>
<stop offset="1" stop-color="#A10705"/>
</linearGradient>
</defs>
</svg>
