<svg width="24" height="24" viewBox="0 0 24 24" fill="none" xmlns="http://www.w3.org/2000/svg">
<path d="M20.2007 20.2545C20.2011 20.5864 19.992 20.9149 19.5859 21.2212C19.1796 21.5278 18.5842 21.8064 17.8334 22.041C17.0826 22.2756 16.1913 22.4617 15.2103 22.5887C14.2293 22.7156 13.1778 22.7809 12.116 22.7809C11.0541 22.7809 10.0027 22.7156 9.02169 22.5887C8.04069 22.4617 7.14936 22.2756 6.39861 22.041C5.64784 21.8064 5.05236 21.5278 4.64616 21.2212C4.23997 20.9149 4.03103 20.5864 4.03125 20.2545C4.03103 19.9228 4.23997 19.5943 4.64616 19.2877C5.05236 18.9812 5.64784 18.7027 6.39861 18.4681C7.14936 18.2335 8.04069 18.0474 9.02169 17.9204C10.0027 17.7935 11.0541 17.7281 12.116 17.7281C13.1778 17.7281 14.2293 17.7935 15.2103 17.9204C16.1913 18.0474 17.0826 18.2335 17.8334 18.4681C18.5842 18.7027 19.1796 18.9812 19.5859 19.2877C19.992 19.5943 20.2011 19.9228 20.2007 20.2545Z" fill="url(#paint0_radial)"/>
<path d="M21.625 12C21.625 17.3157 17.3157 21.625 12 21.625C6.68426 21.625 2.375 17.3157 2.375 12C2.375 6.68426 6.68426 2.375 12 2.375C17.3157 2.375 21.625 6.68426 21.625 12Z" fill="url(#paint1_linear)"/>
<path d="M21.625 12C21.625 17.3157 17.3157 21.625 12 21.625C6.68426 21.625 2.375 17.3157 2.375 12C2.375 6.68426 6.68426 2.375 12 2.375C17.3157 2.375 21.625 6.68426 21.625 12Z" fill="url(#paint2_radial)" fill-opacity="0.2"/>
<path d="M21.625 12C21.625 17.3157 17.3157 21.625 12 21.625C6.68426 21.625 2.375 17.3157 2.375 12C2.375 6.68426 6.68426 2.375 12 2.375C17.3157 2.375 21.625 6.68426 21.625 12Z" stroke="#ABACAE"/>
<path d="M21.375 12C21.375 17.1777 17.1777 21.375 12 21.375C6.82233 21.375 2.625 17.1777 2.625 12C2.625 6.82233 6.82233 2.625 12 2.625C17.1777 2.625 21.375 6.82233 21.375 12Z" stroke="url(#paint3_linear)" stroke-width="1.5"/>
<path d="M21.675 12C21.675 17.3434 17.3434 21.675 12 21.675C6.65665 21.675 2.325 17.3434 2.325 12C2.325 6.65665 6.65665 2.325 12 2.325C17.3434 2.325 21.675 6.65665 21.675 12Z" stroke="url(#paint4_linear)" stroke-width="0.9"/>
<path d="M21.9625 12C21.9625 17.5021 17.5021 21.9625 12 21.9625C6.49786 21.9625 2.0375 17.5021 2.0375 12C2.0375 6.49786 6.49786 2.0375 12 2.0375C17.5021 2.0375 21.9625 6.49786 21.9625 12Z" stroke="url(#paint5_linear)" stroke-width="0.7"/>
<path d="M11.5761 12.2631C11.5761 12.2629 11.5761 12.2627 11.5761 12.2625C11.5761 12.2623 11.5761 12.2621 11.5761 12.2619C11.5761 12.2618 11.5761 12.2616 11.5761 12.2614C11.5766 12.2564 11.5783 12.2438 11.5858 12.2269C11.5951 12.2055 11.6096 12.1858 11.6268 12.1705C11.6592 12.1418 11.6879 12.1384 11.7 12.1384C11.7121 12.1384 11.7408 12.1418 11.7732 12.1705C11.7904 12.1858 11.8049 12.2054 11.8142 12.2269C11.8216 12.2438 11.8234 12.2564 11.8238 12.2614C11.8239 12.2616 11.8239 12.2618 11.8239 12.2619C11.8239 12.2621 11.8239 12.2623 11.8239 12.2625C11.8239 12.2627 11.8239 12.2629 11.8239 12.2631C11.8239 12.2633 11.8239 12.2635 11.8238 12.2637C11.8234 12.2686 11.8216 12.2812 11.8142 12.2981C11.8049 12.3196 11.7904 12.3392 11.7732 12.3545C11.7408 12.3832 11.7121 12.3867 11.7 12.3867C11.6879 12.3867 11.6592 12.3832 11.6268 12.3545C11.6096 12.3392 11.5951 12.3196 11.5858 12.2982C11.5784 12.2812 11.5766 12.2687 11.5761 12.2637C11.5761 12.2635 11.5761 12.2633 11.5761 12.2631Z" stroke="black" stroke-opacity="0.15"/>
<path d="M11.324 12.2643C11.324 12.2637 11.324 12.2631 11.324 12.2625C11.324 12.2619 11.324 12.2614 11.324 12.2608C11.3245 11.762 12.0754 11.7619 12.076 12.2608C12.076 12.2613 12.076 12.2619 12.076 12.2625C12.076 12.2631 12.076 12.2637 12.076 12.2642C12.0754 12.7631 11.3246 12.7631 11.324 12.2643Z" stroke="black" stroke-opacity="0.07" stroke-width="2"/>
<path d="M10.5 13.5L16.5 6.75" stroke="url(#paint6_linear)" stroke-linecap="round"/>
<path d="M10.5 13.5L16.5 6.75" stroke="url(#paint7_linear)" stroke-width="0.5" stroke-linecap="round"/>
<path d="M12.7441 12.2637L7.3147 10" stroke="url(#paint8_linear)" stroke-width="1.5" stroke-linecap="round"/>
<path d="M12.7389 12.2879L7.30957 10.0242" stroke="url(#paint9_linear)" stroke-linecap="round"/>
<path d="M11.25 10.125L14.7243 18.2342" stroke="url(#paint10_linear)" stroke-width="0.7" stroke-linecap="round"/>
<path d="M11.25 10.125L14.7243 18.2342" stroke="url(#paint11_linear)" stroke-width="0.3" stroke-linecap="round"/>
<path d="M12.377 12.0009C12.3782 12.502 11.6239 12.502 11.625 12.0009C11.6238 11.4997 12.3782 11.4997 12.377 12.0009Z" fill="white"/>
<defs>
<radialGradient id="paint0_radial" cx="0" cy="0" r="1" gradientUnits="userSpaceOnUse" gradientTransform="translate(12.116 20.2545) scale(8.08474 2.52587)">
<stop stop-color="#3D3D3D"/>
<stop offset="0.5" stop-color="#686868" stop-opacity="0.498039"/>
<stop offset="1" stop-color="#686868" stop-opacity="0"/>
</radialGradient>
<linearGradient id="paint1_linear" x1="12.0938" y1="22.0313" x2="12.0938" y2="1.96875" gradientUnits="userSpaceOnUse">
<stop stop-color="#BFBFBF"/>
<stop offset="0.489583" stop-color="#ECECEC"/>
<stop offset="0.765625" stop-color="#F4F4F4"/>
<stop offset="1" stop-color="#FAFAFA"/>
</linearGradient>
<radialGradient id="paint2_radial" cx="0" cy="0" r="1" gradientUnits="userSpaceOnUse" gradientTransform="translate(12 12) rotate(90) scale(4.875)">
<stop stop-color="#1A1A1A" stop-opacity="0.7"/>
<stop offset="1" stop-opacity="0"/>
</radialGradient>
<linearGradient id="paint3_linear" x1="12" y1="1.875" x2="12" y2="22.125" gradientUnits="userSpaceOnUse">
<stop stop-color="#4D4D4D"/>
<stop offset="0.515625" stop-color="#333333"/>
<stop offset="1" stop-color="#1A1A1A"/>
</linearGradient>
<linearGradient id="paint4_linear" x1="12" y1="1.875" x2="12" y2="22.125" gradientUnits="userSpaceOnUse">
<stop stop-color="#C5C5C5"/>
<stop offset="0.515625" stop-color="#7A7A7A"/>
<stop offset="1" stop-color="#565656"/>
</linearGradient>
<linearGradient id="paint5_linear" x1="12" y1="1.6875" x2="12" y2="22.3125" gradientUnits="userSpaceOnUse">
<stop stop-color="#373737"/>
<stop offset="0.526042" stop-color="#1A1A1A"/>
<stop offset="1"/>
</linearGradient>
<linearGradient id="paint6_linear" x1="10.3268" y1="13.6826" x2="16.5666" y2="6.6675" gradientUnits="userSpaceOnUse">
<stop stop-color="#333333"/>
<stop offset="0.401042" stop-color="#3E3E3E" stop-opacity="0.85"/>
<stop offset="0.75" stop-color="#686868" stop-opacity="0.8"/>
<stop offset="1" stop-color="#A3A3A3"/>
</linearGradient>
<linearGradient id="paint7_linear" x1="16.5344" y1="6.66334" x2="10.5546" y2="13.5053" gradientUnits="userSpaceOnUse">
<stop stop-color="#4D4D4D"/>
<stop offset="0.459912" stop-color="#333333"/>
<stop offset="1" stop-color="#1A1A1A"/>
</linearGradient>
<linearGradient id="paint8_linear" x1="12.7037" y1="12.5926" x2="7.28194" y2="9.70535" gradientUnits="userSpaceOnUse">
<stop stop-color="#333333"/>
<stop offset="0.34375" stop-color="#4E4E4E" stop-opacity="0.878462"/>
<stop offset="0.677083" stop-color="#606060" stop-opacity="0.8"/>
<stop offset="1" stop-color="#707070" stop-opacity="0.7"/>
</linearGradient>
<linearGradient id="paint9_linear" x1="9.12191" y1="9.62014" x2="10.0453" y2="12.0231" gradientUnits="userSpaceOnUse">
<stop stop-color="#4D4D4D"/>
<stop offset="1" stop-color="#1A1A1A"/>
</linearGradient>
<linearGradient id="paint10_linear" x1="11.2202" y1="10.0217" x2="14.7827" y2="18.3654" gradientUnits="userSpaceOnUse">
<stop stop-color="#FF8282"/>
<stop offset="0.489583" stop-color="#FF2121" stop-opacity="0.9"/>
<stop offset="1" stop-color="#FF1C1C"/>
</linearGradient>
<linearGradient id="paint11_linear" x1="11.314" y1="10.0217" x2="14.8765" y2="18.3654" gradientUnits="userSpaceOnUse">
<stop stop-color="#ED5353"/>
<stop offset="0.489583" stop-color="#C6262E"/>
<stop offset="1" stop-color="#A10705"/>
</linearGradient>
</defs>
</svg>
