<svg width="24" height="24" viewBox="0 0 24 24" fill="none" xmlns="http://www.w3.org/2000/svg">
<path d="M20.2007 19.8795C20.2011 20.2114 19.992 20.5399 19.5859 20.8463C19.1796 21.1528 18.5842 21.4314 17.8334 21.666C17.0826 21.9006 16.1913 22.0868 15.2103 22.2137C14.2293 22.3406 13.1778 22.4059 12.116 22.4059C11.0541 22.4059 10.0027 22.3406 9.02169 22.2137C8.04069 22.0868 7.14936 21.9006 6.39861 21.666C5.64784 21.4314 5.05236 21.1528 4.64616 20.8463C4.23997 20.5399 4.03103 20.2114 4.03125 19.8795C4.03103 19.5478 4.23997 19.2193 4.64616 18.9128C5.05236 18.6062 5.64784 18.3278 6.39861 18.0931C7.14936 17.8585 8.04069 17.6724 9.02169 17.5454C10.0027 17.4185 11.0541 17.3531 12.116 17.3531C13.1778 17.3531 14.2293 17.4185 15.2103 17.5454C16.1913 17.6724 17.0826 17.8585 17.8334 18.0931C18.5842 18.3278 19.1796 18.6062 19.5859 18.9128C19.992 19.2193 20.2011 19.5478 20.2007 19.8795Z" fill="url(#paint0_radial)"/>
<path d="M12 21.75C17.5919 21.75 22.125 17.2169 22.125 11.625C22.125 6.03312 17.5919 1.5 12 1.5C6.40812 1.5 1.875 6.03312 1.875 11.625C1.875 17.2169 6.40812 21.75 12 21.75Z" fill="url(#paint1_linear)" stroke="#ABACAE" stroke-width="1.5"/>
<path d="M11.5761 11.8881C11.5761 11.8879 11.5761 11.8877 11.5761 11.8875C11.5761 11.8873 11.5761 11.8871 11.5761 11.8869C11.5761 11.8867 11.5761 11.8866 11.5761 11.8864C11.5766 11.8814 11.5783 11.8688 11.5858 11.8519C11.5951 11.8304 11.6096 11.8108 11.6268 11.7955C11.6592 11.7668 11.6879 11.7633 11.7 11.7633C11.7121 11.7633 11.7408 11.7668 11.7732 11.7955C11.7904 11.8108 11.8049 11.8304 11.8142 11.8518C11.8216 11.8688 11.8234 11.8814 11.8238 11.8863C11.8239 11.8865 11.8239 11.8867 11.8239 11.8869C11.8239 11.8871 11.8239 11.8873 11.8239 11.8875C11.8239 11.8877 11.8239 11.8879 11.8239 11.8881C11.8239 11.8883 11.8239 11.8884 11.8238 11.8886C11.8234 11.8936 11.8216 11.9062 11.8142 11.9231C11.8049 11.9445 11.7904 11.9642 11.7732 11.9795C11.7408 12.0082 11.7121 12.0116 11.7 12.0116C11.6879 12.0116 11.6592 12.0082 11.6268 11.9795C11.6096 11.9642 11.5951 11.9446 11.5858 11.9231C11.5784 11.9062 11.5766 11.8936 11.5761 11.8887C11.5761 11.8884 11.5761 11.8883 11.5761 11.8881Z" stroke="black" stroke-opacity="0.15"/>
<path d="M11.324 11.8892C11.324 11.8887 11.324 11.8881 11.324 11.8875C11.324 11.8869 11.324 11.8864 11.324 11.8858C11.3245 11.3869 12.0754 11.3869 12.076 11.8858C12.076 11.8863 12.076 11.8869 12.076 11.8875C12.076 11.8881 12.076 11.8886 12.076 11.8892C12.0754 12.3881 11.3246 12.3881 11.324 11.8892Z" stroke="black" stroke-opacity="0.07" stroke-width="2"/>
<path d="M11.4673 12.5525L17.9627 5.25" stroke="black" stroke-opacity="0.15" stroke-width="1.2" stroke-linecap="round"/>
<path d="M11.4673 12.5525L17.9627 5.25" stroke="black" stroke-opacity="0.07" stroke-width="0.5" stroke-linecap="round"/>
<path d="M11.4673 12.365L17.9627 5.0625" stroke="url(#paint2_linear)" stroke-linecap="round"/>
<path d="M12.7206 11.976L6.9375 10.8997" stroke="black" stroke-opacity="0.15" stroke-width="2" stroke-linecap="round"/>
<path d="M12.7206 11.976L6.9375 10.8997" stroke="black" stroke-opacity="0.07" stroke-linecap="round"/>
<path d="M12.7206 11.7885L6.9375 10.7122" stroke="url(#paint3_linear)" stroke-width="1.5" stroke-linecap="round"/>
<path d="M11.4673 10.4158L14.9416 18.525" stroke="black" stroke-opacity="0.15" stroke-width="0.8" stroke-linecap="round"/>
<path d="M11.4673 10.4158L14.9416 18.525" stroke="black" stroke-opacity="0.07" stroke-linecap="round"/>
<path d="M11.4673 10.2283L14.9416 18.3375" stroke="url(#paint4_linear)" stroke-width="0.5" stroke-linecap="round"/>
<path d="M12.5 11.8131C12.5003 11.9325 12.4581 12.0036 12.4087 12.0475C12.3546 12.0955 12.2752 12.125 12.1875 12.125C12.0998 12.125 12.0204 12.0955 11.9663 12.0475C11.9169 12.0036 11.8747 11.9325 11.875 11.8131L11.875 11.8119C11.8747 11.6925 11.9169 11.6214 11.9663 11.5775C12.0204 11.5295 12.0998 11.5 12.1875 11.5C12.2752 11.5 12.3546 11.5295 12.4087 11.5775C12.4581 11.6214 12.5003 11.6925 12.5 11.8119L12.5 11.8131Z" fill="white" stroke="black" stroke-width="0.5"/>
<path d="M12 21.5625C17.4883 21.5625 21.9375 17.1133 21.9375 11.625C21.9375 6.13667 17.4883 1.6875 12 1.6875C6.51167 1.6875 2.0625 6.13667 2.0625 11.625C2.0625 17.1133 6.51167 21.5625 12 21.5625Z" stroke="url(#paint5_linear)"/>
<defs>
<radialGradient id="paint0_radial" cx="0" cy="0" r="1" gradientUnits="userSpaceOnUse" gradientTransform="translate(12.116 19.8795) scale(8.08474 2.52587)">
<stop stop-color="#3D3D3D"/>
<stop offset="0.5" stop-color="#686868" stop-opacity="0.498039"/>
<stop offset="1" stop-color="#686868" stop-opacity="0"/>
</radialGradient>
<linearGradient id="paint1_linear" x1="12.0938" y1="21.6563" x2="12.0938" y2="1.59375" gradientUnits="userSpaceOnUse">
<stop stop-color="#E9E9E9"/>
<stop offset="1" stop-color="#FAFAFA"/>
</linearGradient>
<linearGradient id="paint2_linear" x1="18" y1="4.96875" x2="11.5313" y2="12.375" gradientUnits="userSpaceOnUse">
<stop stop-color="#4D4D4D"/>
<stop offset="0.459912" stop-color="#333333"/>
<stop offset="1" stop-color="#1A1A1A"/>
</linearGradient>
<linearGradient id="paint3_linear" x1="8.625" y1="9.9375" x2="10.0312" y2="12.0938" gradientUnits="userSpaceOnUse">
<stop stop-color="#4D4D4D"/>
<stop offset="1" stop-color="#1A1A1A"/>
</linearGradient>
<linearGradient id="paint4_linear" x1="11.5313" y1="10.125" x2="15.0938" y2="18.4687" gradientUnits="userSpaceOnUse">
<stop stop-color="#ED5353"/>
<stop offset="0.489583" stop-color="#C6262E"/>
<stop offset="1" stop-color="#A10705"/>
</linearGradient>
<linearGradient id="paint5_linear" x1="12.0937" y1="21.6562" x2="12.0937" y2="1.59375" gradientUnits="userSpaceOnUse">
<stop stop-color="#D2D2D2"/>
<stop offset="1" stop-color="white"/>
</linearGradient>
</defs>
</svg>
