<svg width="32" height="32" viewBox="0 0 32 32" fill="none" xmlns="http://www.w3.org/2000/svg">
<path d="M26.9342 27.006C26.9347 27.4485 26.656 27.8865 26.1145 28.295C25.5728 28.7038 24.7789 29.0753 23.7778 29.388C22.7768 29.7008 21.5884 29.949 20.2804 30.1183C18.9724 30.2875 17.5704 30.3745 16.1546 30.3745C14.7388 30.3745 13.3369 30.2875 12.0289 30.1183C10.7209 29.949 9.53248 29.7008 8.53148 29.388C7.53045 29.0753 6.73647 28.7038 6.19488 28.295C5.6533 27.8865 5.3747 27.4485 5.375 27.006C5.3747 26.5638 5.6533 26.1258 6.19488 25.717C6.73647 25.3083 7.53045 24.937 8.53148 24.6242C9.53248 24.3114 10.7209 24.0632 12.0289 23.8939C13.3369 23.7246 14.7388 23.6375 16.1546 23.6375C17.5704 23.6375 18.9724 23.7246 20.2804 23.8939C21.5884 24.0632 22.7768 24.3114 23.7778 24.6242C24.7789 24.937 25.5728 25.3083 26.1145 25.717C26.656 26.1258 26.9347 26.5638 26.9342 27.006Z" fill="url(#paint0_radial)"/>
<path d="M29 16C29 23.1797 23.1797 29 16 29C8.8203 29 3 23.1797 3 16C3 8.8203 8.8203 3 16 3C23.1797 3 29 8.8203 29 16Z" fill="url(#paint1_linear)"/>
<path d="M29 16C29 23.1797 23.1797 29 16 29C8.8203 29 3 23.1797 3 16C3 8.8203 8.8203 3 16 3C23.1797 3 29 8.8203 29 16Z" fill="url(#paint2_radial)" fill-opacity="0.2"/>
<path d="M29 16C29 23.1797 23.1797 29 16 29C8.8203 29 3 23.1797 3 16C3 8.8203 8.8203 3 16 3C23.1797 3 29 8.8203 29 16Z" stroke="#ABACAE"/>
<path d="M7 16.75C7.41421 16.75 7.75 16.4142 7.75 16C7.75 15.5858 7.41421 15.25 7 15.25V16.75ZM4 16.75H7V15.25H4V16.75Z" fill="black" fill-opacity="0.15"/>
<path d="M7 16.5C7.27614 16.5 7.5 16.2761 7.5 16C7.5 15.7239 7.27614 15.5 7 15.5V16.5ZM4 16.5H7V15.5H4V16.5Z" fill="black" fill-opacity="0.07"/>
<path d="M6.7 16.5C6.97614 16.5 7.2 16.2761 7.2 16C7.2 15.7239 6.97614 15.5 6.7 15.5V16.5ZM4 16.5H6.7V15.5H4V16.5Z" fill="#ED5353"/>
<path d="M15.25 7C15.25 7.41421 15.5858 7.75 16 7.75C16.4142 7.75 16.75 7.41421 16.75 7H15.25ZM15.25 4V7H16.75V4H15.25Z" fill="black" fill-opacity="0.15"/>
<path d="M15.5 7C15.5 7.27614 15.7239 7.5 16 7.5C16.2761 7.5 16.5 7.27614 16.5 7H15.5ZM15.5 4V7H16.5V4H15.5Z" fill="black" fill-opacity="0.07"/>
<path d="M15.5 6.7C15.5 6.97614 15.7239 7.2 16 7.2C16.2761 7.2 16.5 6.97614 16.5 6.7H15.5ZM15.5 4V6.7H16.5V4H15.5Z" fill="#ED5353"/>
<path d="M16.75 25C16.75 24.5858 16.4142 24.25 16 24.25C15.5858 24.25 15.25 24.5858 15.25 25H16.75ZM16.75 28V25H15.25V28H16.75Z" fill="black" fill-opacity="0.15"/>
<path d="M16.5 25C16.5 24.7239 16.2761 24.5 16 24.5C15.7239 24.5 15.5 24.7239 15.5 25H16.5ZM16.5 28V25H15.5V28H16.5Z" fill="black" fill-opacity="0.07"/>
<path d="M16.5 25.3C16.5 25.0239 16.2761 24.8 16 24.8C15.7239 24.8 15.5 25.0239 15.5 25.3H16.5ZM16.5 28V25.3H15.5V28H16.5Z" fill="#ED5353"/>
<path d="M25 15.25C24.5858 15.25 24.25 15.5858 24.25 16C24.25 16.4142 24.5858 16.75 25 16.75V15.25ZM28 15.25H25V16.75H28V15.25Z" fill="black" fill-opacity="0.15"/>
<path d="M25 15.5C24.7239 15.5 24.5 15.7239 24.5 16C24.5 16.2761 24.7239 16.5 25 16.5V15.5ZM28 15.5H25V16.5H28V15.5Z" fill="black" fill-opacity="0.07"/>
<path d="M25.3 15.5C25.0239 15.5 24.8 15.7239 24.8 16C24.8 16.2761 25.0239 16.5 25.3 16.5V15.5ZM28 15.5H25.3V16.5H28V15.5Z" fill="#ED5353"/>
<path d="M28.75 16C28.75 23.0416 23.0416 28.75 16 28.75C8.95837 28.75 3.25 23.0416 3.25 16C3.25 8.95837 8.95837 3.25 16 3.25C23.0416 3.25 28.75 8.95837 28.75 16Z" stroke="url(#paint3_linear)" stroke-width="1.5"/>
<path d="M29.05 16C29.05 23.2073 23.2073 29.05 16 29.05C8.79268 29.05 2.95 23.2073 2.95 16C2.95 8.79268 8.79268 2.95 16 2.95C23.2073 2.95 29.05 8.79268 29.05 16Z" stroke="url(#paint4_linear)" stroke-width="0.9"/>
<path d="M29.4 16C29.4 23.4006 23.4006 29.4 16 29.4C8.59938 29.4 2.6 23.4006 2.6 16C2.6 8.59938 8.59938 2.6 16 2.6C23.4006 2.6 29.4 8.59938 29.4 16Z" stroke="url(#paint5_linear)" stroke-width="0.7"/>
<path d="M15.5986 16.3489C15.5991 16.3489 15.5995 16.3489 15.6 16.3489C15.6004 16.3489 15.6009 16.3489 15.6013 16.3489L15.6013 16.3511C15.6009 16.3511 15.6005 16.3512 15.6 16.3512C15.5995 16.3512 15.5991 16.3511 15.5986 16.3511L15.5986 16.3489Z" stroke="black" stroke-opacity="0.15"/>
<path d="M16.0986 16.3492L16.0986 16.35L16.0986 16.35L16.0986 16.3523C16.0986 16.3515 16.0986 16.3508 16.0986 16.35L15.1013 16.3508C15.1013 16.3506 15.1014 16.3503 15.1014 16.35C15.1014 16.35 15.1013 16.35 15.1013 16.35C15.1013 16.3493 15.1014 16.3485 15.1014 16.3477C15.1025 16.2424 15.1525 16.0924 15.2811 15.9782C15.3929 15.8789 15.5131 15.8512 15.6 15.8512C15.6869 15.8512 15.8071 15.8789 15.9189 15.9781C16.0475 16.0924 16.0974 16.2423 16.0986 16.3477C16.0986 16.3482 16.0986 16.3487 16.0986 16.3492ZM16.0986 16.3492L16.0986 16.3477C16.0986 16.3485 16.0986 16.3492 16.0986 16.35C16.0986 16.3497 16.0986 16.3495 16.0986 16.3492Z" stroke="black" stroke-opacity="0.07" stroke-width="2"/>
<path d="M14 18L22 9" stroke="url(#paint6_linear)" stroke-linecap="round"/>
<path d="M14 18L22 9" stroke="url(#paint7_linear)" stroke-width="0.5" stroke-linecap="round"/>
<path d="M16.9921 16.3516L9.75296 13.3333" stroke="url(#paint8_linear)" stroke-width="1.5" stroke-linecap="round"/>
<path d="M16.9852 16.3839L9.74606 13.3656" stroke="url(#paint9_linear)" stroke-linecap="round"/>
<path d="M15 13.5L19.6324 24.3122" stroke="url(#paint10_linear)" stroke-width="0.7" stroke-linecap="round"/>
<path d="M15 13.5L19.6324 24.3122" stroke="url(#paint11_linear)" stroke-width="0.3" stroke-linecap="round"/>
<path d="M16.5027 16.0011C16.5043 16.6693 15.4985 16.6693 15.5 16.0011C15.4985 15.333 16.5042 15.333 16.5027 16.0011Z" fill="white"/>
<defs>
<radialGradient id="paint0_radial" cx="0" cy="0" r="1" gradientUnits="userSpaceOnUse" gradientTransform="translate(16.1546 27.006) scale(10.7796 3.36782)">
<stop stop-color="#3D3D3D"/>
<stop offset="0.5" stop-color="#686868" stop-opacity="0.498039"/>
<stop offset="1" stop-color="#686868" stop-opacity="0"/>
</radialGradient>
<linearGradient id="paint1_linear" x1="16.125" y1="29.375" x2="16.125" y2="2.625" gradientUnits="userSpaceOnUse">
<stop stop-color="#BFBFBF"/>
<stop offset="0.489583" stop-color="#ECECEC"/>
<stop offset="0.765625" stop-color="#F4F4F4"/>
<stop offset="1" stop-color="#FAFAFA"/>
</linearGradient>
<radialGradient id="paint2_radial" cx="0" cy="0" r="1" gradientUnits="userSpaceOnUse" gradientTransform="translate(16 16) rotate(90) scale(6.5)">
<stop stop-color="#1A1A1A" stop-opacity="0.7"/>
<stop offset="1" stop-opacity="0"/>
</radialGradient>
<linearGradient id="paint3_linear" x1="16" y1="2.5" x2="16" y2="29.5" gradientUnits="userSpaceOnUse">
<stop stop-color="#4D4D4D"/>
<stop offset="0.515625" stop-color="#333333"/>
<stop offset="1" stop-color="#1A1A1A"/>
</linearGradient>
<linearGradient id="paint4_linear" x1="16" y1="2.5" x2="16" y2="29.5" gradientUnits="userSpaceOnUse">
<stop stop-color="#C5C5C5"/>
<stop offset="0.515625" stop-color="#7A7A7A"/>
<stop offset="1" stop-color="#565656"/>
</linearGradient>
<linearGradient id="paint5_linear" x1="16" y1="2.25" x2="16" y2="29.75" gradientUnits="userSpaceOnUse">
<stop stop-color="#373737"/>
<stop offset="0.526042" stop-color="#1A1A1A"/>
<stop offset="1"/>
</linearGradient>
<linearGradient id="paint6_linear" x1="13.7691" y1="18.2434" x2="22.0888" y2="8.89" gradientUnits="userSpaceOnUse">
<stop stop-color="#333333"/>
<stop offset="0.401042" stop-color="#3E3E3E" stop-opacity="0.85"/>
<stop offset="0.75" stop-color="#686868" stop-opacity="0.8"/>
<stop offset="1" stop-color="#A3A3A3"/>
</linearGradient>
<linearGradient id="paint7_linear" x1="22.0459" y1="8.88446" x2="14.0727" y2="18.007" gradientUnits="userSpaceOnUse">
<stop stop-color="#4D4D4D"/>
<stop offset="0.459912" stop-color="#333333"/>
<stop offset="1" stop-color="#1A1A1A"/>
</linearGradient>
<linearGradient id="paint8_linear" x1="16.9383" y1="16.7901" x2="9.70929" y2="12.9405" gradientUnits="userSpaceOnUse">
<stop stop-color="#333333"/>
<stop offset="0.34375" stop-color="#4E4E4E" stop-opacity="0.878462"/>
<stop offset="0.677083" stop-color="#606060" stop-opacity="0.8"/>
<stop offset="1" stop-color="#707070" stop-opacity="0.7"/>
</linearGradient>
<linearGradient id="paint9_linear" x1="12.1625" y1="12.8268" x2="13.3937" y2="16.0308" gradientUnits="userSpaceOnUse">
<stop stop-color="#4D4D4D"/>
<stop offset="1" stop-color="#1A1A1A"/>
</linearGradient>
<linearGradient id="paint10_linear" x1="14.9603" y1="13.3622" x2="19.7103" y2="24.4872" gradientUnits="userSpaceOnUse">
<stop stop-color="#FF8282"/>
<stop offset="0.489583" stop-color="#FF2121" stop-opacity="0.9"/>
<stop offset="1" stop-color="#FF1C1C"/>
</linearGradient>
<linearGradient id="paint11_linear" x1="15.0853" y1="13.3622" x2="19.8353" y2="24.4872" gradientUnits="userSpaceOnUse">
<stop stop-color="#ED5353"/>
<stop offset="0.489583" stop-color="#C6262E"/>
<stop offset="1" stop-color="#A10705"/>
</linearGradient>
</defs>
</svg>
