<svg width="32" height="32" viewBox="0 0 32 32" fill="none" xmlns="http://www.w3.org/2000/svg">
<path d="M26.9342 26.506C26.9347 26.9485 26.656 27.3865 26.1145 27.795C25.5728 28.2038 24.7789 28.5753 23.7778 28.888C22.7768 29.2008 21.5884 29.449 20.2804 29.6183C18.9724 29.7875 17.5704 29.8745 16.1546 29.8745C14.7388 29.8745 13.3369 29.7875 12.0289 29.6183C10.7209 29.449 9.53248 29.2008 8.53148 28.888C7.53045 28.5753 6.73647 28.2038 6.19488 27.795C5.6533 27.3865 5.3747 26.9485 5.375 26.506C5.3747 26.0638 5.6533 25.6258 6.19488 25.217C6.73647 24.8083 7.53045 24.437 8.53148 24.1242C9.53248 23.8114 10.7209 23.5632 12.0289 23.3939C13.3369 23.2246 14.7388 23.1375 16.1546 23.1375C17.5704 23.1375 18.9724 23.2246 20.2804 23.3939C21.5884 23.5632 22.7768 23.8114 23.7778 24.1242C24.7789 24.437 25.5728 24.8083 26.1145 25.217C26.656 25.6258 26.9347 26.0638 26.9342 26.506Z" fill="url(#paint0_radial)"/>
<path d="M16 29C23.4558 29 29.5 22.9558 29.5 15.5C29.5 8.04416 23.4558 2 16 2C8.54416 2 2.5 8.04416 2.5 15.5C2.5 22.9558 8.54416 29 16 29Z" fill="url(#paint1_linear)" stroke="#ABACAE" stroke-width="1.5"/>
<path d="M15.5986 15.8489C15.5991 15.8489 15.5995 15.8489 15.6 15.8489C15.6004 15.8489 15.6009 15.8489 15.6013 15.8489L15.6013 15.8511C15.6009 15.8511 15.6005 15.8511 15.6 15.8511C15.5995 15.8511 15.5991 15.8511 15.5986 15.8511L15.5986 15.8489Z" stroke="black" stroke-opacity="0.15"/>
<path d="M16.0986 15.8492L16.0986 15.85L16.0986 15.85L16.0986 15.8523C16.0986 15.8515 16.0986 15.8508 16.0986 15.85L15.1013 15.8508C15.1013 15.8505 15.1014 15.8503 15.1014 15.85C15.1014 15.85 15.1013 15.85 15.1013 15.85C15.1013 15.8492 15.1014 15.8485 15.1014 15.8477C15.1025 15.7424 15.1525 15.5924 15.2811 15.4781C15.3929 15.3789 15.5131 15.3511 15.6 15.3511C15.6869 15.3511 15.8071 15.3789 15.9189 15.4781C16.0475 15.5923 16.0974 15.7423 16.0986 15.8477C16.0986 15.8482 16.0986 15.8487 16.0986 15.8492ZM16.0986 15.8492L16.0986 15.8477C16.0986 15.8484 16.0986 15.8492 16.0986 15.85C16.0986 15.8497 16.0986 15.8495 16.0986 15.8492Z" stroke="black" stroke-opacity="0.07" stroke-width="2"/>
<path d="M15.2897 16.7367L23.9503 7" stroke="black" stroke-opacity="0.15" stroke-width="1.2" stroke-linecap="round"/>
<path d="M15.2897 16.7367L23.9503 7" stroke="black" stroke-opacity="0.07" stroke-width="0.5" stroke-linecap="round"/>
<path d="M15.2897 16.4867L23.9503 6.75" stroke="url(#paint2_linear)" stroke-linecap="round"/>
<path d="M16.9608 15.9679L9.25 14.533" stroke="black" stroke-opacity="0.15" stroke-width="2" stroke-linecap="round"/>
<path d="M16.9608 15.9679L9.25 14.533" stroke="black" stroke-opacity="0.07" stroke-linecap="round"/>
<path d="M16.9608 15.7179L9.25 14.283" stroke="url(#paint3_linear)" stroke-width="1.5" stroke-linecap="round"/>
<path d="M15.2897 13.8878L19.9221 24.7" stroke="black" stroke-opacity="0.15" stroke-width="0.8" stroke-linecap="round"/>
<path d="M15.2897 13.8878L19.9221 24.7" stroke="black" stroke-opacity="0.07" stroke-linecap="round"/>
<path d="M15.2897 13.6378L19.9221 24.45" stroke="url(#paint4_linear)" stroke-width="0.5" stroke-linecap="round"/>
<path d="M16.75 15.7506C16.7504 15.9325 16.6848 16.0505 16.6002 16.1256C16.511 16.2049 16.3847 16.25 16.25 16.25C16.1154 16.25 15.989 16.2049 15.8998 16.1256C15.8152 16.0505 15.7496 15.9325 15.75 15.7506L15.75 15.7494C15.7496 15.5675 15.8152 15.4495 15.8998 15.3744C15.989 15.2951 16.1153 15.25 16.25 15.25C16.3846 15.25 16.511 15.2951 16.6002 15.3744C16.6848 15.4495 16.7504 15.5675 16.75 15.7494L16.75 15.7506Z" fill="white" stroke="black" stroke-width="0.5"/>
<path d="M16 28.75C23.3178 28.75 29.25 22.8178 29.25 15.5C29.25 8.18223 23.3178 2.25 16 2.25C8.68223 2.25 2.75 8.18223 2.75 15.5C2.75 22.8178 8.68223 28.75 16 28.75Z" stroke="url(#paint5_linear)"/>
<defs>
<radialGradient id="paint0_radial" cx="0" cy="0" r="1" gradientUnits="userSpaceOnUse" gradientTransform="translate(16.1546 26.506) scale(10.7796 3.36782)">
<stop stop-color="#3D3D3D"/>
<stop offset="0.5" stop-color="#686868" stop-opacity="0.498039"/>
<stop offset="1" stop-color="#686868" stop-opacity="0"/>
</radialGradient>
<linearGradient id="paint1_linear" x1="16.125" y1="28.875" x2="16.125" y2="2.125" gradientUnits="userSpaceOnUse">
<stop stop-color="#E9E9E9"/>
<stop offset="1" stop-color="#FAFAFA"/>
</linearGradient>
<linearGradient id="paint2_linear" x1="24" y1="6.625" x2="15.375" y2="16.5" gradientUnits="userSpaceOnUse">
<stop stop-color="#4D4D4D"/>
<stop offset="0.459912" stop-color="#333333"/>
<stop offset="1" stop-color="#1A1A1A"/>
</linearGradient>
<linearGradient id="paint3_linear" x1="11.5" y1="13.25" x2="13.375" y2="16.125" gradientUnits="userSpaceOnUse">
<stop stop-color="#4D4D4D"/>
<stop offset="1" stop-color="#1A1A1A"/>
</linearGradient>
<linearGradient id="paint4_linear" x1="15.375" y1="13.5" x2="20.125" y2="24.625" gradientUnits="userSpaceOnUse">
<stop stop-color="#ED5353"/>
<stop offset="0.489583" stop-color="#C6262E"/>
<stop offset="1" stop-color="#A10705"/>
</linearGradient>
<linearGradient id="paint5_linear" x1="16.125" y1="28.875" x2="16.125" y2="2.125" gradientUnits="userSpaceOnUse">
<stop stop-color="#D2D2D2"/>
<stop offset="1" stop-color="white"/>
</linearGradient>
</defs>
</svg>
