<svg width="48" height="48" viewBox="0 0 48 48" fill="none" xmlns="http://www.w3.org/2000/svg">
<path d="M40.4014 40.509C40.4021 41.1727 39.984 41.8297 39.1717 42.4425C38.3591 43.0556 37.1683 43.6129 35.6668 44.082C34.1653 44.5511 32.3826 44.9235 30.4206 45.1774C28.4586 45.4312 26.3557 45.5617 24.232 45.5617C22.1083 45.5617 20.0054 45.4312 18.0434 45.1774C16.0814 44.9235 14.2987 44.5511 12.7972 44.082C11.2957 43.6129 10.1047 43.0556 9.29231 42.4425C8.47995 41.8297 8.06205 41.1727 8.0625 40.509C8.06205 39.8456 8.47995 39.1886 9.29231 38.5755C10.1047 37.9624 11.2957 37.4055 12.7972 36.9362C14.2987 36.467 16.0814 36.0948 18.0434 35.8409C20.0054 35.5869 22.1083 35.4562 24.232 35.4562C26.3557 35.4562 28.4586 35.5869 30.4206 35.8409C32.3826 36.0948 34.1653 36.467 35.6668 36.9362C37.1683 37.4055 38.3591 37.9624 39.1717 38.5755C39.984 39.1886 40.4021 39.8456 40.4014 40.509Z" fill="url(#paint0_radial)"/>
<path d="M43.75 24C43.75 34.9076 34.9076 43.75 24 43.75C13.0924 43.75 4.25 34.9076 4.25 24C4.25 13.0924 13.0924 4.25 24 4.25C34.9076 4.25 43.75 13.0924 43.75 24Z" fill="url(#paint1_linear)"/>
<path d="M43.75 24C43.75 34.9076 34.9076 43.75 24 43.75C13.0924 43.75 4.25 34.9076 4.25 24C4.25 13.0924 13.0924 4.25 24 4.25C34.9076 4.25 43.75 13.0924 43.75 24Z" fill="url(#paint2_radial)" fill-opacity="0.2"/>
<path d="M43.75 24C43.75 34.9076 34.9076 43.75 24 43.75C13.0924 43.75 4.25 34.9076 4.25 24C4.25 13.0924 13.0924 4.25 24 4.25C34.9076 4.25 43.75 13.0924 43.75 24Z" stroke="#ABACAE"/>
<path d="M43.25 24C43.25 34.6315 34.6315 43.25 24 43.25C13.3685 43.25 4.75 34.6315 4.75 24C4.75 13.3685 13.3685 4.75 24 4.75C34.6315 4.75 43.25 13.3685 43.25 24Z" stroke="url(#paint3_linear)" stroke-width="2"/>
<path d="M43.75 24C43.75 34.9076 34.9076 43.75 24 43.75C13.0924 43.75 4.25 34.9076 4.25 24C4.25 13.0924 13.0924 4.25 24 4.25C34.9076 4.25 43.75 13.0924 43.75 24Z" stroke="url(#paint4_linear)"/>
<path d="M44.275 24C44.275 35.1976 35.1976 44.275 24 44.275C12.8024 44.275 3.725 35.1976 3.725 24C3.725 12.8024 12.8024 3.725 24 3.725C35.1976 3.725 44.275 12.8024 44.275 24Z" stroke="url(#paint5_linear)" stroke-width="0.7"/>
<path d="M23.652 24.5262C23.6523 24.6404 23.6145 24.6893 23.5857 24.7149C23.5475 24.7488 23.4821 24.7767 23.4 24.7767C23.3179 24.7767 23.2525 24.7488 23.2143 24.7149C23.1855 24.6893 23.1477 24.6404 23.148 24.5261L23.148 24.5238C23.1477 24.4096 23.1855 24.3606 23.2143 24.3351C23.2525 24.3012 23.3179 24.2733 23.4 24.2733C23.4821 24.2733 23.5475 24.3012 23.5856 24.3351C23.6144 24.3607 23.6523 24.4096 23.652 24.5239L23.652 24.5262Z" stroke="black" stroke-opacity="0.15"/>
<path d="M23.1522 24.5261C23.1522 24.5257 23.1521 24.5254 23.1521 24.525C23.1521 24.5247 23.1522 24.5243 23.1522 24.5238C23.1522 24.5235 23.1522 24.5231 23.1523 24.5227C23.1531 24.5127 23.1567 24.4876 23.1715 24.4537C23.1902 24.4109 23.2192 24.3717 23.2536 24.3411C23.3184 24.2836 23.3759 24.2767 23.4 24.2767C23.4241 24.2767 23.4816 24.2836 23.5463 24.341C23.5808 24.3716 23.6098 24.4109 23.6285 24.4537C23.6433 24.4876 23.6468 24.5127 23.6477 24.5227C23.6477 24.5231 23.6478 24.5235 23.6478 24.5238C23.6478 24.5243 23.6478 24.5246 23.6479 24.525C23.6478 24.5253 23.6478 24.5257 23.6478 24.5262C23.6478 24.5265 23.6477 24.5269 23.6477 24.5273C23.6469 24.5372 23.6433 24.5623 23.6285 24.5963C23.6098 24.6391 23.5808 24.6783 23.5463 24.7089C23.4816 24.7664 23.4241 24.7733 23.4 24.7733C23.3758 24.7733 23.3184 24.7664 23.2536 24.7089C23.2192 24.6783 23.1902 24.6391 23.1715 24.5963C23.1567 24.5624 23.1531 24.5373 23.1523 24.5273C23.1522 24.5269 23.1522 24.5265 23.1522 24.5261Z" stroke="black" stroke-opacity="0.07" stroke-width="2"/>
<path d="M21 27.75L33.75 13.5" stroke="black" stroke-opacity="0.15" stroke-width="1.5" stroke-linecap="round"/>
<path d="M21 27.75L33.75 13.5" stroke="black" stroke-opacity="0.07" stroke-linecap="round"/>
<path d="M21 27L33 13.5" stroke="url(#paint6_linear)" stroke-width="2" stroke-linecap="round"/>
<path d="M21 27L33 13.5" stroke="url(#paint7_linear)" stroke-linecap="round"/>
<path d="M24.6659 24.7854L13.8072 20.258" stroke="black" stroke-opacity="0.15" stroke-width="2.5" stroke-linecap="round"/>
<path d="M24.3096 24.6585L13.4509 20.131" stroke="black" stroke-opacity="0.07" stroke-width="2.5" stroke-linecap="round"/>
<path d="M25.4882 24.5275L14.6295 20" stroke="url(#paint8_linear)" stroke-width="2.5" stroke-linecap="round"/>
<path d="M25.4778 24.5758L14.6191 20.0484" stroke="url(#paint9_linear)" stroke-width="1.5" stroke-linecap="round"/>
<path d="M22.5 20.625L29.4486 36.8433" stroke="black" stroke-opacity="0.15" stroke-linecap="round"/>
<path d="M22.5 21L29.4486 37.2183" stroke="black" stroke-opacity="0.07" stroke-linecap="round"/>
<path d="M22.5 20.25L29.4486 36.4683" stroke="url(#paint10_linear)" stroke-linecap="round"/>
<path d="M22.5 20.25L29.4486 36.4683" stroke="url(#paint11_linear)" stroke-width="0.5" stroke-linecap="round"/>
<path d="M24.7541 24.0017C24.7564 25.004 23.2477 25.004 23.25 24.0017C23.2477 22.9994 24.7564 22.9994 24.7541 24.0017Z" fill="white"/>
<path d="M12 25C12.5523 25 13 24.5523 13 24C13 23.4477 12.5523 23 12 23V25ZM6 25H12V23H6V25Z" fill="black" fill-opacity="0.15"/>
<path d="M12 24.75C12.4142 24.75 12.75 24.4142 12.75 24C12.75 23.5858 12.4142 23.25 12 23.25V24.75ZM6 24.75H12V23.25H6V24.75Z" fill="black" fill-opacity="0.07"/>
<path d="M11.4 24.75C11.8142 24.75 12.15 24.4142 12.15 24C12.15 23.5858 11.8142 23.25 11.4 23.25V24.75ZM6 24.75H11.4V23.25H6V24.75Z" fill="#ED5353"/>
<path d="M23 12C23 12.5523 23.4477 13 24 13C24.5523 13 25 12.5523 25 12H23ZM23 6V12H25V6H23Z" fill="black" fill-opacity="0.15"/>
<path d="M23.25 12C23.25 12.4142 23.5858 12.75 24 12.75C24.4142 12.75 24.75 12.4142 24.75 12H23.25ZM23.25 6V12H24.75V6H23.25Z" fill="black" fill-opacity="0.07"/>
<path d="M23.25 11.4C23.25 11.8142 23.5858 12.15 24 12.15C24.4142 12.15 24.75 11.8142 24.75 11.4H23.25ZM23.25 6V11.4H24.75V6H23.25Z" fill="#ED5353"/>
<path d="M36 23C35.4477 23 35 23.4477 35 24C35 24.5523 35.4477 25 36 25V23ZM42 23H36V25H42V23Z" fill="black" fill-opacity="0.15"/>
<path d="M36 23.25C35.5858 23.25 35.25 23.5858 35.25 24C35.25 24.4142 35.5858 24.75 36 24.75V23.25ZM42 23.25H36V24.75H42V23.25Z" fill="black" fill-opacity="0.07"/>
<path d="M36.6 23.25C36.1858 23.25 35.85 23.5858 35.85 24C35.85 24.4142 36.1858 24.75 36.6 24.75V23.25ZM42 23.25H36.6V24.75H42V23.25Z" fill="#ED5353"/>
<path d="M25 36C25 35.4477 24.5523 35 24 35C23.4477 35 23 35.4477 23 36H25ZM25 42V36H23V42H25Z" fill="black" fill-opacity="0.15"/>
<path d="M24.75 36C24.75 35.5858 24.4142 35.25 24 35.25C23.5858 35.25 23.25 35.5858 23.25 36H24.75ZM24.75 42V36H23.25V42H24.75Z" fill="black" fill-opacity="0.07"/>
<path d="M24.75 36.6C24.75 36.1858 24.4142 35.85 24 35.85C23.5858 35.85 23.25 36.1858 23.25 36.6H24.75ZM24.75 42V36.6H23.25V42H24.75Z" fill="#ED5353"/>
<defs>
<radialGradient id="paint0_radial" cx="0" cy="0" r="1" gradientUnits="userSpaceOnUse" gradientTransform="translate(24.232 40.509) scale(16.1695 5.05174)">
<stop stop-color="#3D3D3D"/>
<stop offset="0.5" stop-color="#686868" stop-opacity="0.498039"/>
<stop offset="1" stop-color="#686868" stop-opacity="0"/>
</radialGradient>
<linearGradient id="paint1_linear" x1="24" y1="44.5" x2="24" y2="9" gradientUnits="userSpaceOnUse">
<stop stop-color="#BFBFBF"/>
<stop offset="0.489583" stop-color="#ECECEC"/>
<stop offset="0.765625" stop-color="#F4F4F4"/>
<stop offset="1" stop-color="#FAFAFA"/>
</linearGradient>
<radialGradient id="paint2_radial" cx="0" cy="0" r="1" gradientUnits="userSpaceOnUse" gradientTransform="translate(24 24) rotate(90) scale(7)">
<stop stop-color="#1A1A1A" stop-opacity="0.7"/>
<stop offset="1" stop-opacity="0"/>
</radialGradient>
<linearGradient id="paint3_linear" x1="24" y1="3.75" x2="24" y2="44.25" gradientUnits="userSpaceOnUse">
<stop stop-color="#4D4D4D"/>
<stop offset="0.515625" stop-color="#333333"/>
<stop offset="1" stop-color="#1A1A1A"/>
</linearGradient>
<linearGradient id="paint4_linear" x1="24" y1="3.75" x2="24" y2="44.25" gradientUnits="userSpaceOnUse">
<stop stop-color="#C5C5C5"/>
<stop offset="0.515625" stop-color="#7A7A7A"/>
<stop offset="1" stop-color="#565656"/>
</linearGradient>
<linearGradient id="paint5_linear" x1="24" y1="3.375" x2="24" y2="44.625" gradientUnits="userSpaceOnUse">
<stop stop-color="#373737"/>
<stop offset="0.526042" stop-color="#1A1A1A"/>
<stop offset="1"/>
</linearGradient>
<linearGradient id="paint6_linear" x1="20.6536" y1="27.3651" x2="33.1332" y2="13.335" gradientUnits="userSpaceOnUse">
<stop stop-color="#333333"/>
<stop offset="0.401042" stop-color="#3E3E3E" stop-opacity="0.85"/>
<stop offset="0.75" stop-color="#686868" stop-opacity="0.8"/>
<stop offset="1" stop-color="#A3A3A3"/>
</linearGradient>
<linearGradient id="paint7_linear" x1="33.0689" y1="13.3267" x2="21.1091" y2="27.0106" gradientUnits="userSpaceOnUse">
<stop stop-color="#4D4D4D"/>
<stop offset="0.459912" stop-color="#333333"/>
<stop offset="1" stop-color="#1A1A1A"/>
</linearGradient>
<linearGradient id="paint8_linear" x1="25.4074" y1="25.1852" x2="14.5639" y2="19.4107" gradientUnits="userSpaceOnUse">
<stop stop-color="#333333"/>
<stop offset="0.34375" stop-color="#4E4E4E" stop-opacity="0.878462"/>
<stop offset="0.677083" stop-color="#606060" stop-opacity="0.8"/>
<stop offset="1" stop-color="#707070" stop-opacity="0.7"/>
</linearGradient>
<linearGradient id="paint9_linear" x1="18.2438" y1="19.2402" x2="20.0905" y2="24.0462" gradientUnits="userSpaceOnUse">
<stop stop-color="#4D4D4D"/>
<stop offset="1" stop-color="#1A1A1A"/>
</linearGradient>
<linearGradient id="paint10_linear" x1="22.4405" y1="20.0433" x2="29.5655" y2="36.7308" gradientUnits="userSpaceOnUse">
<stop stop-color="#FF8282"/>
<stop offset="0.489583" stop-color="#FF2121" stop-opacity="0.9"/>
<stop offset="1" stop-color="#FF1C1C"/>
</linearGradient>
<linearGradient id="paint11_linear" x1="22.628" y1="20.0433" x2="29.753" y2="36.7308" gradientUnits="userSpaceOnUse">
<stop stop-color="#ED5353"/>
<stop offset="0.489583" stop-color="#C6262E"/>
<stop offset="1" stop-color="#A10705"/>
</linearGradient>
</defs>
</svg>
