<svg width="48" height="48" viewBox="0 0 48 48" fill="none" xmlns="http://www.w3.org/2000/svg">
<path d="M40.4014 39.759C40.4021 40.4228 39.984 41.0798 39.1717 41.6925C38.3591 42.3056 37.1683 42.8629 35.6668 43.332C34.1653 43.8011 32.3826 44.1735 30.4206 44.4274C28.4586 44.6813 26.3557 44.8118 24.232 44.8118C22.1083 44.8118 20.0054 44.6813 18.0434 44.4274C16.0814 44.1735 14.2987 43.8011 12.7972 43.332C11.2957 42.8629 10.1047 42.3056 9.29231 41.6925C8.47995 41.0798 8.06205 40.4228 8.0625 39.759C8.06205 39.0956 8.47995 38.4386 9.29231 37.8255C10.1047 37.2124 11.2957 36.6555 12.7972 36.1863C14.2987 35.717 16.0814 35.3448 18.0434 35.0909C20.0054 34.8369 22.1083 34.7063 24.232 34.7063C26.3557 34.7063 28.4586 34.8369 30.4206 35.0909C32.3826 35.3448 34.1653 35.717 35.6668 36.1863C37.1683 36.6555 38.3591 37.2124 39.1717 37.8255C39.984 38.4386 40.4021 39.0956 40.4014 39.759Z" fill="url(#paint0_radial)"/>
<path d="M24 43.5C35.1838 43.5 44.25 34.4338 44.25 23.25C44.25 12.0662 35.1838 3 24 3C12.8162 3 3.75 12.0662 3.75 23.25C3.75 34.4338 12.8162 43.5 24 43.5Z" fill="url(#paint1_linear)" stroke="#ABACAE" stroke-width="1.7"/>
<path d="M23.652 23.7762C23.6523 23.8904 23.6145 23.9393 23.5857 23.9649C23.5475 23.9988 23.4821 24.0267 23.4 24.0267C23.3179 24.0267 23.2525 23.9988 23.2143 23.9649C23.1855 23.9393 23.1477 23.8904 23.148 23.7761L23.148 23.7738C23.1477 23.6596 23.1855 23.6107 23.2143 23.5851C23.2525 23.5512 23.3179 23.5233 23.4 23.5233C23.4821 23.5233 23.5475 23.5512 23.5856 23.5851C23.6144 23.6107 23.6523 23.6596 23.652 23.7739L23.652 23.7762Z" stroke="black" stroke-opacity="0.15"/>
<path d="M23.1522 23.7762C23.1522 23.7757 23.1521 23.7754 23.1521 23.775C23.1521 23.7747 23.1522 23.7743 23.1522 23.7738C23.1522 23.7735 23.1522 23.7731 23.1523 23.7727C23.1531 23.7627 23.1567 23.7377 23.1715 23.7037C23.1902 23.6609 23.2192 23.6217 23.2536 23.5911C23.3184 23.5336 23.3759 23.5267 23.4 23.5267C23.4241 23.5267 23.4816 23.5336 23.5463 23.5911C23.5808 23.6217 23.6098 23.6609 23.6285 23.7037C23.6433 23.7376 23.6468 23.7627 23.6477 23.7727C23.6477 23.7731 23.6478 23.7735 23.6478 23.7738C23.6478 23.7743 23.6478 23.7746 23.6479 23.775C23.6478 23.7753 23.6478 23.7757 23.6478 23.7762C23.6478 23.7765 23.6477 23.7769 23.6477 23.7773C23.6469 23.7873 23.6433 23.8123 23.6285 23.8463C23.6098 23.8891 23.5808 23.9283 23.5463 23.9589C23.4816 24.0164 23.4241 24.0233 23.4 24.0233C23.3758 24.0233 23.3184 24.0164 23.2536 23.9589C23.2192 23.9283 23.1902 23.8891 23.1715 23.8463C23.1567 23.8124 23.1531 23.7873 23.1523 23.7773C23.1522 23.7769 23.1522 23.7765 23.1522 23.7762Z" stroke="black" stroke-opacity="0.07" stroke-width="2"/>
<path d="M22.9345 25.105L35.9254 10.5" stroke="black" stroke-opacity="0.15" stroke-width="1.2" stroke-linecap="round"/>
<path d="M22.9345 25.105L35.9254 10.5" stroke="black" stroke-opacity="0.07" stroke-width="0.5" stroke-linecap="round"/>
<path d="M22.9345 24.73L35.9254 10.125" stroke="url(#paint2_linear)" stroke-width="1.2" stroke-linecap="round"/>
<path d="M25.4412 23.9519L13.875 21.7995" stroke="black" stroke-opacity="0.15" stroke-width="2" stroke-linecap="round"/>
<path d="M25.4412 23.9519L13.875 21.7995" stroke="black" stroke-opacity="0.07" stroke-linecap="round"/>
<path d="M25.4412 23.5769L13.875 21.4245" stroke="url(#paint3_linear)" stroke-width="2" stroke-linecap="round"/>
<path d="M22.9345 20.8317L29.8831 37.05" stroke="black" stroke-opacity="0.15" stroke-width="0.8" stroke-linecap="round"/>
<path d="M22.9345 20.8317L29.8831 37.05" stroke="black" stroke-opacity="0.07" stroke-linecap="round"/>
<path d="M22.9345 20.4567L29.8831 36.675" stroke="url(#paint4_linear)" stroke-width="0.8" stroke-linecap="round"/>
<path d="M24.5041 23.2523C24.5045 23.4347 24.4386 23.5531 24.3537 23.6286C24.2641 23.7081 24.1372 23.7534 24.002 23.7534C23.8669 23.7534 23.74 23.7081 23.6504 23.6286C23.5654 23.5531 23.4996 23.4347 23.5 23.2523L23.5 23.2511C23.4996 23.0687 23.5654 22.9503 23.6504 22.8749C23.74 22.7953 23.8668 22.75 24.002 22.75C24.1372 22.75 24.2641 22.7953 24.3537 22.8749C24.4386 22.9503 24.5045 23.0687 24.5041 23.2511L24.5041 23.2523Z" fill="white" stroke="black" stroke-width="0.5"/>
<path d="M23.5 8C23.5 8.27614 23.7239 8.5 24 8.5C24.2761 8.5 24.5 8.27614 24.5 8H23.5ZM23.5 4.4V8H24.5V4.4H23.5Z" fill="black" fill-opacity="0.15"/>
<path d="M23.4 8C23.4 8.33137 23.6686 8.6 24 8.6C24.3314 8.6 24.6 8.33137 24.6 8H23.4ZM23.4 4.4V8H24.6V4.4H23.4Z" fill="black" fill-opacity="0.07"/>
<path d="M23.5 7.6C23.5 7.87614 23.7239 8.1 24 8.1C24.2761 8.1 24.5 7.87614 24.5 7.6H23.5ZM23.5 4V7.6H24.5V4H23.5Z" fill="#ED5353"/>
<path d="M40 23.5C39.7239 23.5 39.5 23.7239 39.5 24C39.5 24.2761 39.7239 24.5 40 24.5V23.5ZM44 23.5H40V24.5H44V23.5Z" fill="black" fill-opacity="0.15"/>
<path d="M40 23.4C39.6686 23.4 39.4 23.6686 39.4 24C39.4 24.3314 39.6686 24.6 40 24.6V23.4ZM44 23.4H40V24.6H44V23.4Z" fill="black" fill-opacity="0.07"/>
<path d="M40 22.5C39.7239 22.5 39.5 22.7239 39.5 23C39.5 23.2761 39.7239 23.5 40 23.5V22.5ZM44 22.5H40V23.5H44V22.5Z" fill="#C6262E"/>
<path d="M24.5 39C24.5 38.7239 24.2761 38.5 24 38.5C23.7239 38.5 23.5 38.7239 23.5 39H24.5ZM24.5 43V39H23.5V43H24.5Z" fill="#C6262E"/>
<path d="M25.5 39.4444C25.5 39.1683 25.2761 38.9444 25 38.9444C24.7239 38.9444 24.5 39.1683 24.5 39.4444H25.5ZM25.5 43V39.4444H24.5V43H25.5Z" fill="black" fill-opacity="0.15"/>
<path d="M25.6 39.4444C25.6 39.1131 25.3314 38.8444 25 38.8444C24.6686 38.8444 24.4 39.1131 24.4 39.4444H25.6ZM25.6 43V39.4444H24.4V43H25.6Z" fill="black" fill-opacity="0.07"/>
<path d="M8 23.5C8.27614 23.5 8.5 23.2761 8.5 23C8.5 22.7239 8.27614 22.5 8 22.5V23.5ZM4 23.5H8V22.5H4V23.5Z" fill="#C6262E"/>
<path d="M8 24.5C8.27614 24.5 8.5 24.2761 8.5 24C8.5 23.7239 8.27614 23.5 8 23.5V24.5ZM4 24.5H8V23.5H4V24.5Z" fill="black" fill-opacity="0.15"/>
<path d="M8 24.6C8.33137 24.6 8.6 24.3314 8.6 24C8.6 23.6686 8.33137 23.4 8 23.4V24.6ZM4 24.6H8V23.4H4V24.6Z" fill="black" fill-opacity="0.07"/>
<path d="M24 43.125C34.9767 43.125 43.875 34.2267 43.875 23.25C43.875 12.2733 34.9767 3.375 24 3.375C13.0233 3.375 4.125 12.2733 4.125 23.25C4.125 34.2267 13.0233 43.125 24 43.125Z" stroke="url(#paint5_linear)"/>
<defs>
<radialGradient id="paint0_radial" cx="0" cy="0" r="1" gradientUnits="userSpaceOnUse" gradientTransform="translate(24.232 39.759) scale(16.1695 5.05174)">
<stop stop-color="#3D3D3D"/>
<stop offset="0.5" stop-color="#686868" stop-opacity="0.498039"/>
<stop offset="1" stop-color="#686868" stop-opacity="0"/>
</radialGradient>
<linearGradient id="paint1_linear" x1="24.1875" y1="43.3125" x2="24.1875" y2="3.1875" gradientUnits="userSpaceOnUse">
<stop stop-color="#E9E9E9"/>
<stop offset="1" stop-color="#FAFAFA"/>
</linearGradient>
<linearGradient id="paint2_linear" x1="36" y1="9.9375" x2="23.0625" y2="24.75" gradientUnits="userSpaceOnUse">
<stop stop-color="#4D4D4D"/>
<stop offset="0.459912" stop-color="#333333"/>
<stop offset="1" stop-color="#1A1A1A"/>
</linearGradient>
<linearGradient id="paint3_linear" x1="17.25" y1="19.875" x2="20.0625" y2="24.1875" gradientUnits="userSpaceOnUse">
<stop stop-color="#4D4D4D"/>
<stop offset="1" stop-color="#1A1A1A"/>
</linearGradient>
<linearGradient id="paint4_linear" x1="23.0625" y1="20.25" x2="30.1875" y2="36.9375" gradientUnits="userSpaceOnUse">
<stop stop-color="#ED5353"/>
<stop offset="0.489583" stop-color="#C6262E"/>
<stop offset="1" stop-color="#A10705"/>
</linearGradient>
<linearGradient id="paint5_linear" x1="24.1875" y1="43.3125" x2="24.1875" y2="3.1875" gradientUnits="userSpaceOnUse">
<stop stop-color="#D2D2D2"/>
<stop offset="1" stop-color="white"/>
</linearGradient>
</defs>
</svg>
