<svg width="64" height="64" viewBox="0 0 64 64" fill="none" xmlns="http://www.w3.org/2000/svg">
<path d="M53.8685 54.012C53.8695 54.897 53.312 55.773 52.229 56.59C51.1455 57.4075 49.5577 58.1505 47.5557 58.776C45.5537 59.4015 43.1768 59.898 40.5608 60.2365C37.9448 60.575 35.1409 60.749 32.3093 60.749C29.4777 60.749 26.6739 60.575 24.0579 60.2365C21.4419 59.898 19.065 59.4015 17.063 58.776C15.0609 58.1505 13.4729 57.4075 12.3898 56.59C11.3066 55.773 10.7494 54.897 10.75 54.012C10.7494 53.1275 11.3066 52.2515 12.3898 51.434C13.4729 50.6165 15.0609 49.874 17.063 49.2483C19.065 48.6227 21.4419 48.1264 24.0579 47.7878C26.6739 47.4492 29.4777 47.275 32.3093 47.275C35.1409 47.275 37.9448 47.4492 40.5608 47.7878C43.1768 48.1264 45.5537 48.6227 47.5557 49.2483C49.5577 49.874 51.1455 50.6165 52.229 51.434C53.312 52.2515 53.8695 53.1275 53.8685 54.012Z" fill="url(#paint0_radial)"/>
<path d="M58.5 32C58.5 46.6355 46.6355 58.5 32 58.5C17.3645 58.5 5.5 46.6355 5.5 32C5.5 17.3645 17.3645 5.5 32 5.5C46.6355 5.5 58.5 17.3645 58.5 32Z" fill="url(#paint1_linear)"/>
<path d="M58.5 32C58.5 46.6355 46.6355 58.5 32 58.5C17.3645 58.5 5.5 46.6355 5.5 32C5.5 17.3645 17.3645 5.5 32 5.5C46.6355 5.5 58.5 17.3645 58.5 32Z" fill="url(#paint2_radial)" fill-opacity="0.2"/>
<path d="M58.5 32C58.5 46.6355 46.6355 58.5 32 58.5C17.3645 58.5 5.5 46.6355 5.5 32C5.5 17.3645 17.3645 5.5 32 5.5C46.6355 5.5 58.5 17.3645 58.5 32Z" stroke="#ABACAE"/>
<path d="M57.5 32C57.5 46.0833 46.0833 57.5 32 57.5C17.9167 57.5 6.5 46.0833 6.5 32C6.5 17.9167 17.9167 6.5 32 6.5C46.0833 6.5 57.5 17.9167 57.5 32Z" stroke="url(#paint3_linear)" stroke-width="3"/>
<path d="M58.5 32C58.5 46.6355 46.6355 58.5 32 58.5C17.3645 58.5 5.5 46.6355 5.5 32C5.5 17.3645 17.3645 5.5 32 5.5C46.6355 5.5 58.5 17.3645 58.5 32Z" stroke="url(#paint4_linear)"/>
<path d="M59 32C59 46.9117 46.9117 59 32 59C17.0883 59 5 46.9117 5 32C5 17.0883 17.0883 5 32 5C46.9117 5 59 17.0883 59 32Z" stroke="url(#paint5_linear)"/>
<path d="M31.7027 32.7012C31.7032 32.899 31.634 33.0105 31.5582 33.0778C31.473 33.1535 31.3448 33.2023 31.2 33.2023C31.0551 33.2023 30.927 33.1535 30.8418 33.0778C30.7659 33.0105 30.6968 32.8989 30.6973 32.7011L30.6973 32.6988C30.6968 32.501 30.7659 32.3895 30.8417 32.3222C30.9269 32.2465 31.0551 32.1977 31.2 32.1977C31.3448 32.1977 31.473 32.2465 31.5582 32.3222C31.634 32.3895 31.7031 32.5011 31.7027 32.6989L31.7027 32.7012Z" stroke="black" stroke-opacity="0.15"/>
<path d="M31.1973 32.6978C31.1982 32.6977 31.1991 32.6977 31.2 32.6977C31.2009 32.6977 31.2018 32.6977 31.2027 32.6978L31.2027 32.7022C31.2018 32.7023 31.2009 32.7023 31.2 32.7023C31.1991 32.7023 31.1982 32.7023 31.1973 32.7022L31.1973 32.6978Z" stroke="black" stroke-opacity="0.07" stroke-width="2"/>
<path d="M28 37L45 18" stroke="black" stroke-opacity="0.15" stroke-width="1.5" stroke-linecap="round"/>
<path d="M28 37L45 18" stroke="black" stroke-opacity="0.07" stroke-linecap="round"/>
<path d="M28 36L44 18" stroke="url(#paint6_linear)" stroke-width="2" stroke-linecap="round"/>
<path d="M28 36L44 18" stroke="url(#paint7_linear)" stroke-linecap="round"/>
<path d="M32.9216 32.9359L17.5 30.0659" stroke="black" stroke-opacity="0.15" stroke-width="2" stroke-linecap="round"/>
<path d="M32.4216 32.8699L17 30" stroke="black" stroke-opacity="0.07" stroke-width="3" stroke-linecap="round"/>
<path d="M33.9216 32.3699L18.5 29.5" stroke="url(#paint8_linear)" stroke-width="3" stroke-linecap="round"/>
<path d="M33.9216 32.4359L18.5 29.5659" stroke="url(#paint9_linear)" stroke-width="2" stroke-linecap="round"/>
<path d="M30 27.5L39.2648 49.1244" stroke="black" stroke-opacity="0.15" stroke-linecap="round"/>
<path d="M30 28L39.2648 49.6244" stroke="black" stroke-opacity="0.07" stroke-linecap="round"/>
<path d="M30 27L39.2648 48.6244" stroke="url(#paint10_linear)" stroke-linecap="round"/>
<path d="M30 27L39.2648 48.6244" stroke="url(#paint11_linear)" stroke-width="0.5" stroke-linecap="round"/>
<path d="M33.0054 32.0023C33.0085 33.3386 30.997 33.3386 31 32.0023C30.9969 30.6659 33.0085 30.6659 33.0054 32.0023Z" fill="white"/>
<path d="M14 33C14.5523 33 15 32.5523 15 32C15 31.4477 14.5523 31 14 31V33ZM8 33H14V31H8V33Z" fill="black" fill-opacity="0.15"/>
<path d="M14 32.75C14.4142 32.75 14.75 32.4142 14.75 32C14.75 31.5858 14.4142 31.25 14 31.25V32.75ZM8 32.75H14V31.25H8V32.75Z" fill="black" fill-opacity="0.07"/>
<path d="M13.4 32.75C13.8142 32.75 14.15 32.4142 14.15 32C14.15 31.5858 13.8142 31.25 13.4 31.25V32.75ZM8 32.75H13.4V31.25H8V32.75Z" fill="#ED5353"/>
<path d="M31 14C31 14.5523 31.4477 15 32 15C32.5523 15 33 14.5523 33 14H31ZM31 8V14H33V8H31Z" fill="black" fill-opacity="0.15"/>
<path d="M31.25 14C31.25 14.4142 31.5858 14.75 32 14.75C32.4142 14.75 32.75 14.4142 32.75 14H31.25ZM31.25 8V14H32.75V8H31.25Z" fill="black" fill-opacity="0.07"/>
<path d="M31.25 13.4C31.25 13.8142 31.5858 14.15 32 14.15C32.4142 14.15 32.75 13.8142 32.75 13.4H31.25ZM31.25 8V13.4H32.75V8H31.25Z" fill="#ED5353"/>
<path d="M50 31C49.4477 31 49 31.4477 49 32C49 32.5523 49.4477 33 50 33V31ZM56 31H50V33H56V31Z" fill="black" fill-opacity="0.15"/>
<path d="M50 31.25C49.5858 31.25 49.25 31.5858 49.25 32C49.25 32.4142 49.5858 32.75 50 32.75V31.25ZM56 31.25H50V32.75H56V31.25Z" fill="black" fill-opacity="0.07"/>
<path d="M50.6 31.25C50.1858 31.25 49.85 31.5858 49.85 32C49.85 32.4142 50.1858 32.75 50.6 32.75V31.25ZM56 31.25H50.6V32.75H56V31.25Z" fill="#ED5353"/>
<path d="M33 50C33 49.4477 32.5523 49 32 49C31.4477 49 31 49.4477 31 50H33ZM33 56V50H31V56H33Z" fill="black" fill-opacity="0.15"/>
<path d="M32.75 50C32.75 49.5858 32.4142 49.25 32 49.25C31.5858 49.25 31.25 49.5858 31.25 50H32.75ZM32.75 56V50H31.25V56H32.75Z" fill="black" fill-opacity="0.07"/>
<path d="M32.75 50.6C32.75 50.1858 32.4142 49.85 32 49.85C31.5858 49.85 31.25 50.1858 31.25 50.6H32.75ZM32.75 56V50.6H31.25V56H32.75Z" fill="#ED5353"/>
<defs>
<radialGradient id="paint0_radial" cx="0" cy="0" r="1" gradientUnits="userSpaceOnUse" gradientTransform="translate(32.3093 54.012) scale(21.5593 6.73565)">
<stop stop-color="#3D3D3D"/>
<stop offset="0.5" stop-color="#686868" stop-opacity="0.498039"/>
<stop offset="1" stop-color="#686868" stop-opacity="0"/>
</radialGradient>
<linearGradient id="paint1_linear" x1="32.25" y1="58.75" x2="32.25" y2="5.25" gradientUnits="userSpaceOnUse">
<stop stop-color="#BFBFBF"/>
<stop offset="0.489583" stop-color="#ECECEC"/>
<stop offset="0.765625" stop-color="#F4F4F4"/>
<stop offset="1" stop-color="#FAFAFA"/>
</linearGradient>
<radialGradient id="paint2_radial" cx="0" cy="0" r="1" gradientUnits="userSpaceOnUse" gradientTransform="translate(32 32) rotate(90) scale(13)">
<stop stop-color="#1A1A1A" stop-opacity="0.7"/>
<stop offset="1" stop-opacity="0"/>
</radialGradient>
<linearGradient id="paint3_linear" x1="32" y1="5" x2="32" y2="59" gradientUnits="userSpaceOnUse">
<stop stop-color="#4D4D4D"/>
<stop offset="0.515625" stop-color="#333333"/>
<stop offset="1" stop-color="#1A1A1A"/>
</linearGradient>
<linearGradient id="paint4_linear" x1="32" y1="5" x2="32" y2="59" gradientUnits="userSpaceOnUse">
<stop stop-color="#C5C5C5"/>
<stop offset="0.515625" stop-color="#7A7A7A"/>
<stop offset="1" stop-color="#565656"/>
</linearGradient>
<linearGradient id="paint5_linear" x1="32" y1="4.5" x2="32" y2="59.5" gradientUnits="userSpaceOnUse">
<stop stop-color="#373737"/>
<stop offset="0.526042" stop-color="#1A1A1A"/>
<stop offset="1"/>
</linearGradient>
<linearGradient id="paint6_linear" x1="27.5381" y1="36.4868" x2="44.1776" y2="17.78" gradientUnits="userSpaceOnUse">
<stop stop-color="#333333"/>
<stop offset="0.401042" stop-color="#3E3E3E" stop-opacity="0.85"/>
<stop offset="0.75" stop-color="#686868" stop-opacity="0.8"/>
<stop offset="1" stop-color="#A3A3A3"/>
</linearGradient>
<linearGradient id="paint7_linear" x1="44.0918" y1="17.7689" x2="28.1455" y2="36.0141" gradientUnits="userSpaceOnUse">
<stop stop-color="#4D4D4D"/>
<stop offset="0.459912" stop-color="#333333"/>
<stop offset="1" stop-color="#1A1A1A"/>
</linearGradient>
<linearGradient id="paint8_linear" x1="34" y1="33.25" x2="18.25" y2="28.75" gradientUnits="userSpaceOnUse">
<stop stop-color="#333333"/>
<stop offset="0.34375" stop-color="#4E4E4E" stop-opacity="0.878462"/>
<stop offset="0.677083" stop-color="#606060" stop-opacity="0.8"/>
<stop offset="1" stop-color="#707070" stop-opacity="0.7"/>
</linearGradient>
<linearGradient id="paint9_linear" x1="23" y1="27.5" x2="26.75" y2="33.25" gradientUnits="userSpaceOnUse">
<stop stop-color="#4D4D4D"/>
<stop offset="1" stop-color="#1A1A1A"/>
</linearGradient>
<linearGradient id="paint10_linear" x1="29.9206" y1="26.7244" x2="39.4206" y2="48.9744" gradientUnits="userSpaceOnUse">
<stop stop-color="#FF8282"/>
<stop offset="0.489583" stop-color="#FF2121" stop-opacity="0.9"/>
<stop offset="1" stop-color="#FF1C1C"/>
</linearGradient>
<linearGradient id="paint11_linear" x1="30.1706" y1="26.7244" x2="39.6706" y2="48.9744" gradientUnits="userSpaceOnUse">
<stop stop-color="#ED5353"/>
<stop offset="0.489583" stop-color="#C6262E"/>
<stop offset="1" stop-color="#A10705"/>
</linearGradient>
</defs>
</svg>
